ISO-10303-21;
HEADER;
/* Generated by software containing ST-Developer
 * from STEP Tools, Inc. (www.steptools.com) 
 */

FILE_DESCRIPTION(
/* description */ (''),
/* implementation_level */ '2;1');

FILE_NAME(
/* name */ '18650 Li-Po Battery Cell.step',
/* time_stamp */ '2026-07-19T12:00:10+05:30',
/* author */ (''),
/* organization */ (''),
/* preprocessor_version */ 'ST-DEVELOPER v20.1',
/* originating_system */ 'Autodesk Translation Framework v15.8.0.0',
/* authorisation */ '');

FILE_SCHEMA (('AUTOMOTIVE_DESIGN { 1 0 10303 214 3 1 1 }'));
ENDSEC;

DATA;
#10=MECHANICAL_DESIGN_GEOMETRIC_PRESENTATION_REPRESENTATION('',(#17,#18,
#19,#20),#386);
#11=SHAPE_REPRESENTATION_RELATIONSHIP('SRR','None',#393,#12);
#12=ADVANCED_BREP_SHAPE_REPRESENTATION('',(#13),#385);
#13=MANIFOLD_SOLID_BREP('Body1',#206);
#14=TOROIDAL_SURFACE('',#249,8.6499999984872,0.5);
#15=TOROIDAL_SURFACE('',#251,8.6499999984872,0.5);
#16=CONICAL_SURFACE('',#241,3.99999999933866,0.785398163397448);
#17=STYLED_ITEM('',(#404),#195);
#18=STYLED_ITEM('',(#404),#199);
#19=STYLED_ITEM('',(#404),#203);
#20=STYLED_ITEM('',(#403),#13);
#21=FACE_BOUND('',#50,.T.);
#22=FACE_BOUND('',#52,.T.);
#23=FACE_BOUND('',#56,.T.);
#24=FACE_BOUND('',#59,.T.);
#25=FACE_BOUND('',#63,.T.);
#26=PLANE('',#225);
#27=PLANE('',#228);
#28=PLANE('',#233);
#29=PLANE('',#234);
#30=PLANE('',#239);
#31=PLANE('',#245);
#32=PLANE('',#248);
#33=FACE_OUTER_BOUND('',#48,.T.);
#34=FACE_OUTER_BOUND('',#49,.T.);
#35=FACE_OUTER_BOUND('',#51,.T.);
#36=FACE_OUTER_BOUND('',#53,.T.);
#37=FACE_OUTER_BOUND('',#54,.T.);
#38=FACE_OUTER_BOUND('',#55,.T.);
#39=FACE_OUTER_BOUND('',#57,.T.);
#40=FACE_OUTER_BOUND('',#58,.T.);
#41=FACE_OUTER_BOUND('',#60,.T.);
#42=FACE_OUTER_BOUND('',#61,.T.);
#43=FACE_OUTER_BOUND('',#62,.T.);
#44=FACE_OUTER_BOUND('',#64,.T.);
#45=FACE_OUTER_BOUND('',#65,.T.);
#46=FACE_OUTER_BOUND('',#66,.T.);
#47=FACE_OUTER_BOUND('',#67,.T.);
#48=EDGE_LOOP('',(#138,#139,#140,#141,#142,#143));
#49=EDGE_LOOP('',(#144));
#50=EDGE_LOOP('',(#145));
#51=EDGE_LOOP('',(#146));
#52=EDGE_LOOP('',(#147));
#53=EDGE_LOOP('',(#148,#149,#150,#151));
#54=EDGE_LOOP('',(#152));
#55=EDGE_LOOP('',(#153));
#56=EDGE_LOOP('',(#154));
#57=EDGE_LOOP('',(#155,#156,#157,#158));
#58=EDGE_LOOP('',(#159));
#59=EDGE_LOOP('',(#160));
#60=EDGE_LOOP('',(#161,#162,#163,#164));
#61=EDGE_LOOP('',(#165,#166,#167,#168));
#62=EDGE_LOOP('',(#169));
#63=EDGE_LOOP('',(#170));
#64=EDGE_LOOP('',(#171,#172,#173,#174));
#65=EDGE_LOOP('',(#175));
#66=EDGE_LOOP('',(#176,#177,#178,#179,#180));
#67=EDGE_LOOP('',(#181,#182,#183,#184,#185));
#68=LINE('',#334,#74);
#69=LINE('',#351,#75);
#70=LINE('',#361,#76);
#71=LINE('',#367,#77);
#72=LINE('',#372,#78);
#73=LINE('',#377,#79);
#74=VECTOR('',#261,9.1499999984872);
#75=VECTOR('',#282,7.14999999952627);
#76=VECTOR('',#295,8.14999999865253);
#77=VECTOR('',#302,3.99999999933866);
#78=VECTOR('',#309,6.65000000132933);
#79=VECTOR('',#316,5.64999999876227);
#80=CIRCLE('',#221,9.1499999984872);
#81=CIRCLE('',#222,9.1499999984872);
#82=CIRCLE('',#223,9.1499999984872);
#83=CIRCLE('',#224,9.1499999984872);
#84=CIRCLE('',#226,8.6499999984872);
#85=CIRCLE('',#227,6.65000000132933);
#86=CIRCLE('',#229,8.6499999984872);
#87=CIRCLE('',#230,7.14999999952627);
#88=CIRCLE('',#232,7.14999999952627);
#89=CIRCLE('',#235,8.14999999865253);
#90=CIRCLE('',#236,5.64999999876227);
#91=CIRCLE('',#238,8.14999999865253);
#92=CIRCLE('',#240,4.79999999868218);
#93=CIRCLE('',#242,3.99999999933866);
#94=CIRCLE('',#244,6.65000000132933);
#95=CIRCLE('',#246,5.64999999876227);
#96=CIRCLE('',#250,0.5);
#97=CIRCLE('',#252,0.5);
#98=VERTEX_POINT('',#329);
#99=VERTEX_POINT('',#330);
#100=VERTEX_POINT('',#333);
#101=VERTEX_POINT('',#335);
#102=VERTEX_POINT('',#339);
#103=VERTEX_POINT('',#341);
#104=VERTEX_POINT('',#344);
#105=VERTEX_POINT('',#346);
#106=VERTEX_POINT('',#349);
#107=VERTEX_POINT('',#354);
#108=VERTEX_POINT('',#356);
#109=VERTEX_POINT('',#359);
#110=VERTEX_POINT('',#363);
#111=VERTEX_POINT('',#366);
#112=VERTEX_POINT('',#370);
#113=VERTEX_POINT('',#374);
#114=EDGE_CURVE('',#98,#99,#80,.T.);
#115=EDGE_CURVE('',#99,#98,#81,.T.);
#116=EDGE_CURVE('',#98,#100,#68,.T.);
#117=EDGE_CURVE('',#100,#101,#82,.F.);
#118=EDGE_CURVE('',#101,#100,#83,.F.);
#119=EDGE_CURVE('',#102,#102,#84,.T.);
#120=EDGE_CURVE('',#103,#103,#85,.T.);
#121=EDGE_CURVE('',#104,#104,#86,.F.);
#122=EDGE_CURVE('',#105,#105,#87,.T.);
#123=EDGE_CURVE('',#106,#106,#88,.T.);
#124=EDGE_CURVE('',#106,#105,#69,.T.);
#125=EDGE_CURVE('',#107,#107,#89,.T.);
#126=EDGE_CURVE('',#108,#108,#90,.T.);
#127=EDGE_CURVE('',#109,#109,#91,.T.);
#128=EDGE_CURVE('',#109,#107,#70,.T.);
#129=EDGE_CURVE('',#110,#110,#92,.T.);
#130=EDGE_CURVE('',#110,#111,#71,.T.);
#131=EDGE_CURVE('',#111,#111,#93,.T.);
#132=EDGE_CURVE('',#112,#112,#94,.T.);
#133=EDGE_CURVE('',#112,#103,#72,.T.);
#134=EDGE_CURVE('',#113,#113,#95,.T.);
#135=EDGE_CURVE('',#108,#113,#73,.T.);
#136=EDGE_CURVE('',#99,#104,#96,.T.);
#137=EDGE_CURVE('',#102,#101,#97,.T.);
#138=ORIENTED_EDGE('',*,*,#114,.T.);
#139=ORIENTED_EDGE('',*,*,#115,.T.);
#140=ORIENTED_EDGE('',*,*,#116,.T.);
#141=ORIENTED_EDGE('',*,*,#117,.T.);
#142=ORIENTED_EDGE('',*,*,#118,.T.);
#143=ORIENTED_EDGE('',*,*,#116,.F.);
#144=ORIENTED_EDGE('',*,*,#119,.T.);
#145=ORIENTED_EDGE('',*,*,#120,.F.);
#146=ORIENTED_EDGE('',*,*,#121,.T.);
#147=ORIENTED_EDGE('',*,*,#122,.T.);
#148=ORIENTED_EDGE('',*,*,#123,.T.);
#149=ORIENTED_EDGE('',*,*,#124,.T.);
#150=ORIENTED_EDGE('',*,*,#122,.F.);
#151=ORIENTED_EDGE('',*,*,#124,.F.);
#152=ORIENTED_EDGE('',*,*,#123,.F.);
#153=ORIENTED_EDGE('',*,*,#125,.F.);
#154=ORIENTED_EDGE('',*,*,#126,.T.);
#155=ORIENTED_EDGE('',*,*,#127,.F.);
#156=ORIENTED_EDGE('',*,*,#128,.T.);
#157=ORIENTED_EDGE('',*,*,#125,.T.);
#158=ORIENTED_EDGE('',*,*,#128,.F.);
#159=ORIENTED_EDGE('',*,*,#127,.T.);
#160=ORIENTED_EDGE('',*,*,#129,.F.);
#161=ORIENTED_EDGE('',*,*,#129,.T.);
#162=ORIENTED_EDGE('',*,*,#130,.T.);
#163=ORIENTED_EDGE('',*,*,#131,.F.);
#164=ORIENTED_EDGE('',*,*,#130,.F.);
#165=ORIENTED_EDGE('',*,*,#132,.F.);
#166=ORIENTED_EDGE('',*,*,#133,.T.);
#167=ORIENTED_EDGE('',*,*,#120,.T.);
#168=ORIENTED_EDGE('',*,*,#133,.F.);
#169=ORIENTED_EDGE('',*,*,#132,.T.);
#170=ORIENTED_EDGE('',*,*,#134,.F.);
#171=ORIENTED_EDGE('',*,*,#126,.F.);
#172=ORIENTED_EDGE('',*,*,#135,.T.);
#173=ORIENTED_EDGE('',*,*,#134,.T.);
#174=ORIENTED_EDGE('',*,*,#135,.F.);
#175=ORIENTED_EDGE('',*,*,#131,.T.);
#176=ORIENTED_EDGE('',*,*,#114,.F.);
#177=ORIENTED_EDGE('',*,*,#115,.F.);
#178=ORIENTED_EDGE('',*,*,#136,.T.);
#179=ORIENTED_EDGE('',*,*,#121,.F.);
#180=ORIENTED_EDGE('',*,*,#136,.F.);
#181=ORIENTED_EDGE('',*,*,#119,.F.);
#182=ORIENTED_EDGE('',*,*,#137,.T.);
#183=ORIENTED_EDGE('',*,*,#117,.F.);
#184=ORIENTED_EDGE('',*,*,#118,.F.);
#185=ORIENTED_EDGE('',*,*,#137,.F.);
#186=CYLINDRICAL_SURFACE('',#220,9.1499999984872);
#187=CYLINDRICAL_SURFACE('',#231,7.14999999952627);
#188=CYLINDRICAL_SURFACE('',#237,8.14999999865253);
#189=CYLINDRICAL_SURFACE('',#243,6.65000000132933);
#190=CYLINDRICAL_SURFACE('',#247,5.64999999876227);
#191=ADVANCED_FACE('',(#33),#186,.T.);
#192=ADVANCED_FACE('',(#34,#21),#26,.T.);
#193=ADVANCED_FACE('',(#35,#22),#27,.F.);
#194=ADVANCED_FACE('',(#36),#187,.F.);
#195=ADVANCED_FACE('',(#37),#28,.F.);
#196=ADVANCED_FACE('',(#38,#23),#29,.T.);
#197=ADVANCED_FACE('',(#39),#188,.F.);
#198=ADVANCED_FACE('',(#40,#24),#30,.T.);
#199=ADVANCED_FACE('',(#41),#16,.T.);
#200=ADVANCED_FACE('',(#42),#189,.F.);
#201=ADVANCED_FACE('',(#43,#25),#31,.T.);
#202=ADVANCED_FACE('',(#44),#190,.F.);
#203=ADVANCED_FACE('',(#45),#32,.T.);
#204=ADVANCED_FACE('',(#46),#14,.T.);
#205=ADVANCED_FACE('',(#47),#15,.T.);
#206=CLOSED_SHELL('',(#191,#192,#193,#194,#195,#196,#197,#198,#199,#200,
#201,#202,#203,#204,#205));
#207=DERIVED_UNIT_ELEMENT(#209,1.);
#208=DERIVED_UNIT_ELEMENT(#388,-3.);
#209=(
MASS_UNIT()
NAMED_UNIT(*)
SI_UNIT(.KILO.,.GRAM.)
);
#210=DERIVED_UNIT((#207,#208));
#211=MEASURE_REPRESENTATION_ITEM('density measure',
POSITIVE_RATIO_MEASURE(7850.),#210);
#212=PROPERTY_DEFINITION_REPRESENTATION(#217,#214);
#213=PROPERTY_DEFINITION_REPRESENTATION(#218,#215);
#214=REPRESENTATION('material name',(#216),#385);
#215=REPRESENTATION('density',(#211),#385);
#216=DESCRIPTIVE_REPRESENTATION_ITEM('Steel','Steel');
#217=PROPERTY_DEFINITION('material property','material name',#395);
#218=PROPERTY_DEFINITION('material property','density of part',#395);
#219=AXIS2_PLACEMENT_3D('',#327,#253,#254);
#220=AXIS2_PLACEMENT_3D('',#328,#255,#256);
#221=AXIS2_PLACEMENT_3D('',#331,#257,#258);
#222=AXIS2_PLACEMENT_3D('',#332,#259,#260);
#223=AXIS2_PLACEMENT_3D('',#336,#262,#263);
#224=AXIS2_PLACEMENT_3D('',#337,#264,#265);
#225=AXIS2_PLACEMENT_3D('',#338,#266,#267);
#226=AXIS2_PLACEMENT_3D('',#340,#268,#269);
#227=AXIS2_PLACEMENT_3D('',#342,#270,#271);
#228=AXIS2_PLACEMENT_3D('',#343,#272,#273);
#229=AXIS2_PLACEMENT_3D('',#345,#274,#275);
#230=AXIS2_PLACEMENT_3D('',#347,#276,#277);
#231=AXIS2_PLACEMENT_3D('',#348,#278,#279);
#232=AXIS2_PLACEMENT_3D('',#350,#280,#281);
#233=AXIS2_PLACEMENT_3D('',#352,#283,#284);
#234=AXIS2_PLACEMENT_3D('',#353,#285,#286);
#235=AXIS2_PLACEMENT_3D('',#355,#287,#288);
#236=AXIS2_PLACEMENT_3D('',#357,#289,#290);
#237=AXIS2_PLACEMENT_3D('',#358,#291,#292);
#238=AXIS2_PLACEMENT_3D('',#360,#293,#294);
#239=AXIS2_PLACEMENT_3D('',#362,#296,#297);
#240=AXIS2_PLACEMENT_3D('',#364,#298,#299);
#241=AXIS2_PLACEMENT_3D('',#365,#300,#301);
#242=AXIS2_PLACEMENT_3D('',#368,#303,#304);
#243=AXIS2_PLACEMENT_3D('',#369,#305,#306);
#244=AXIS2_PLACEMENT_3D('',#371,#307,#308);
#245=AXIS2_PLACEMENT_3D('',#373,#310,#311);
#246=AXIS2_PLACEMENT_3D('',#375,#312,#313);
#247=AXIS2_PLACEMENT_3D('',#376,#314,#315);
#248=AXIS2_PLACEMENT_3D('',#378,#317,#318);
#249=AXIS2_PLACEMENT_3D('',#379,#319,#320);
#250=AXIS2_PLACEMENT_3D('',#380,#321,#322);
#251=AXIS2_PLACEMENT_3D('',#381,#323,#324);
#252=AXIS2_PLACEMENT_3D('',#382,#325,#326);
#253=DIRECTION('axis',(0.,0.,1.));
#254=DIRECTION('refdir',(1.,0.,0.));
#255=DIRECTION('center_axis',(0.,0.,-1.));
#256=DIRECTION('ref_axis',(-1.,0.,0.));
#257=DIRECTION('center_axis',(0.,0.,1.));
#258=DIRECTION('ref_axis',(1.,0.,0.));
#259=DIRECTION('center_axis',(0.,0.,1.));
#260=DIRECTION('ref_axis',(1.,0.,0.));
#261=DIRECTION('',(0.,0.,1.));
#262=DIRECTION('center_axis',(0.,0.,1.));
#263=DIRECTION('ref_axis',(1.,0.,0.));
#264=DIRECTION('center_axis',(0.,0.,1.));
#265=DIRECTION('ref_axis',(1.,0.,0.));
#266=DIRECTION('center_axis',(0.,0.,1.));
#267=DIRECTION('ref_axis',(1.,0.,0.));
#268=DIRECTION('center_axis',(0.,0.,1.));
#269=DIRECTION('ref_axis',(1.,0.,0.));
#270=DIRECTION('center_axis',(0.,0.,1.));
#271=DIRECTION('ref_axis',(1.,0.,0.));
#272=DIRECTION('center_axis',(0.,0.,1.));
#273=DIRECTION('ref_axis',(1.,0.,0.));
#274=DIRECTION('center_axis',(0.,0.,1.));
#275=DIRECTION('ref_axis',(1.,0.,0.));
#276=DIRECTION('center_axis',(0.,0.,1.));
#277=DIRECTION('ref_axis',(1.,0.,0.));
#278=DIRECTION('center_axis',(0.,0.,-1.));
#279=DIRECTION('ref_axis',(-1.,0.,0.));
#280=DIRECTION('center_axis',(0.,0.,1.));
#281=DIRECTION('ref_axis',(1.,0.,0.));
#282=DIRECTION('',(0.,0.,-1.));
#283=DIRECTION('center_axis',(0.,0.,1.));
#284=DIRECTION('ref_axis',(1.,0.,0.));
#285=DIRECTION('center_axis',(0.,0.,-1.));
#286=DIRECTION('ref_axis',(-1.,0.,0.));
#287=DIRECTION('center_axis',(0.,0.,1.));
#288=DIRECTION('ref_axis',(1.,0.,0.));
#289=DIRECTION('center_axis',(0.,0.,1.));
#290=DIRECTION('ref_axis',(1.,0.,0.));
#291=DIRECTION('center_axis',(0.,0.,1.));
#292=DIRECTION('ref_axis',(1.,0.,0.));
#293=DIRECTION('center_axis',(0.,0.,1.));
#294=DIRECTION('ref_axis',(1.,0.,0.));
#295=DIRECTION('',(0.,0.,1.));
#296=DIRECTION('center_axis',(0.,0.,1.));
#297=DIRECTION('ref_axis',(1.,0.,0.));
#298=DIRECTION('center_axis',(0.,0.,1.));
#299=DIRECTION('ref_axis',(1.,0.,0.));
#300=DIRECTION('center_axis',(0.,0.,-1.));
#301=DIRECTION('ref_axis',(-1.,0.,0.));
#302=DIRECTION('',(-0.707106781186548,8.65956056235493E-17,0.707106781186548));
#303=DIRECTION('center_axis',(0.,0.,1.));
#304=DIRECTION('ref_axis',(1.,0.,0.));
#305=DIRECTION('center_axis',(0.,0.,1.));
#306=DIRECTION('ref_axis',(1.,0.,0.));
#307=DIRECTION('center_axis',(0.,0.,1.));
#308=DIRECTION('ref_axis',(1.,0.,0.));
#309=DIRECTION('',(0.,0.,1.));
#310=DIRECTION('center_axis',(0.,0.,1.));
#311=DIRECTION('ref_axis',(1.,0.,0.));
#312=DIRECTION('center_axis',(0.,0.,1.));
#313=DIRECTION('ref_axis',(1.,0.,0.));
#314=DIRECTION('center_axis',(0.,0.,1.));
#315=DIRECTION('ref_axis',(1.,0.,0.));
#316=DIRECTION('',(0.,0.,1.));
#317=DIRECTION('center_axis',(0.,0.,1.));
#318=DIRECTION('ref_axis',(1.,0.,0.));
#319=DIRECTION('center_axis',(0.,0.,1.));
#320=DIRECTION('ref_axis',(1.,0.,0.));
#321=DIRECTION('center_axis',(1.22464679914735E-16,-1.,0.));
#322=DIRECTION('ref_axis',(-1.,-1.22464679914735E-16,0.));
#323=DIRECTION('center_axis',(0.,0.,1.));
#324=DIRECTION('ref_axis',(1.,0.,0.));
#325=DIRECTION('center_axis',(1.22464679914735E-16,-1.,0.));
#326=DIRECTION('ref_axis',(-1.,-1.22464679914735E-16,0.));
#327=CARTESIAN_POINT('',(0.,0.,0.));
#328=CARTESIAN_POINT('Origin',(0.,0.,64.5));
#329=CARTESIAN_POINT('',(9.1499999984872,0.,0.5));
#330=CARTESIAN_POINT('',(-9.1499999984872,-1.12055182103456E-15,0.5));
#331=CARTESIAN_POINT('Origin',(0.,0.,0.5));
#332=CARTESIAN_POINT('Origin',(0.,0.,0.5));
#333=CARTESIAN_POINT('',(9.1499999984872,0.,64.));
#334=CARTESIAN_POINT('',(9.1499999984872,-1.12055182103456E-15,64.5));
#335=CARTESIAN_POINT('',(-9.1499999984872,-1.12055182103456E-15,64.));
#336=CARTESIAN_POINT('Origin',(0.,0.,64.));
#337=CARTESIAN_POINT('Origin',(0.,0.,64.));
#338=CARTESIAN_POINT('Origin',(0.,0.,64.5));
#339=CARTESIAN_POINT('',(-8.6499999984872,-1.0593194810772E-15,64.5));
#340=CARTESIAN_POINT('Origin',(0.,0.,64.5));
#341=CARTESIAN_POINT('',(-6.65000000132933,-8.14390121595786E-16,64.5));
#342=CARTESIAN_POINT('Origin',(2.81006095360329E-15,0.,64.5));
#343=CARTESIAN_POINT('Origin',(0.,0.,0.));
#344=CARTESIAN_POINT('',(-8.6499999984872,-1.0593194810772E-15,0.));
#345=CARTESIAN_POINT('Origin',(0.,0.,0.));
#346=CARTESIAN_POINT('',(7.14999999952627,0.,0.));
#347=CARTESIAN_POINT('Origin',(0.,0.,0.));
#348=CARTESIAN_POINT('Origin',(0.,0.,0.2));
#349=CARTESIAN_POINT('',(7.14999999952627,0.,0.2));
#350=CARTESIAN_POINT('Origin',(0.,0.,0.2));
#351=CARTESIAN_POINT('',(7.14999999952627,-8.75622461332342E-16,0.2));
#352=CARTESIAN_POINT('Origin',(0.,0.,0.2));
#353=CARTESIAN_POINT('Origin',(-5.64999999876227,0.,64.2));
#354=CARTESIAN_POINT('',(-8.14999999865253,-9.98087141140076E-16,64.2));
#355=CARTESIAN_POINT('Origin',(2.81006095360329E-15,0.,64.2));
#356=CARTESIAN_POINT('',(-5.64999999876227,-6.91925441366677E-16,64.2));
#357=CARTESIAN_POINT('Origin',(2.81006095360329E-15,0.,64.2));
#358=CARTESIAN_POINT('Origin',(2.81006095360329E-15,0.,64.8359201941017));
#359=CARTESIAN_POINT('',(-8.14999999865253,-9.98087141140076E-16,63.7000000006565));
#360=CARTESIAN_POINT('Origin',(2.81006095360329E-15,0.,63.7000000006565));
#361=CARTESIAN_POINT('',(-8.14999999865253,-9.98087141140076E-16,64.8359201941017));
#362=CARTESIAN_POINT('Origin',(-8.14999999865253,0.,63.7000000006565));
#363=CARTESIAN_POINT('',(4.79999999868218,0.,63.7000000006565));
#364=CARTESIAN_POINT('Origin',(2.81006095360329E-15,0.,63.7000000006565));
#365=CARTESIAN_POINT('Origin',(2.81006095360329E-15,0.,64.5));
#366=CARTESIAN_POINT('',(3.99999999933866,0.,64.5));
#367=CARTESIAN_POINT('',(3.99999999933866,-4.8985871957795E-16,64.5));
#368=CARTESIAN_POINT('Origin',(2.81006095360329E-15,0.,64.5));
#369=CARTESIAN_POINT('Origin',(2.81006095360329E-15,0.,64.8359201941017));
#370=CARTESIAN_POINT('',(-6.65000000132933,-8.14390121595786E-16,64.35));
#371=CARTESIAN_POINT('Origin',(2.81006095360329E-15,0.,64.35));
#372=CARTESIAN_POINT('',(-6.65000000132933,-8.14390121595786E-16,64.8359201941017));
#373=CARTESIAN_POINT('Origin',(-6.65000000132933,0.,64.35));
#374=CARTESIAN_POINT('',(-5.64999999876227,-6.91925441366677E-16,64.35));
#375=CARTESIAN_POINT('Origin',(2.81006095360329E-15,0.,64.35));
#376=CARTESIAN_POINT('Origin',(2.81006095360329E-15,0.,64.8359201941017));
#377=CARTESIAN_POINT('',(-5.64999999876227,-6.91925441366677E-16,64.8359201941017));
#378=CARTESIAN_POINT('Origin',(0.,0.,64.5));
#379=CARTESIAN_POINT('Origin',(0.,0.,0.5));
#380=CARTESIAN_POINT('Origin',(-8.6499999984872,-1.0593194810772E-15,0.5));
#381=CARTESIAN_POINT('Origin',(0.,0.,64.));
#382=CARTESIAN_POINT('Origin',(-8.6499999984872,-1.0593194810772E-15,64.));
#383=UNCERTAINTY_MEASURE_WITH_UNIT(LENGTH_MEASURE(0.01),#387,
'DISTANCE_ACCURACY_VALUE',
'Maximum model space distance between geometric entities at asserted c
onnectivities');
#384=UNCERTAINTY_MEASURE_WITH_UNIT(LENGTH_MEASURE(0.01),#387,
'DISTANCE_ACCURACY_VALUE',
'Maximum model space distance between geometric entities at asserted c
onnectivities');
#385=(
GEOMETRIC_REPRESENTATION_CONTEXT(3)
GLOBAL_UNCERTAINTY_ASSIGNED_CONTEXT((#383))
GLOBAL_UNIT_ASSIGNED_CONTEXT((#387,#389,#390))
REPRESENTATION_CONTEXT('','3D')
);
#386=(
GEOMETRIC_REPRESENTATION_CONTEXT(3)
GLOBAL_UNCERTAINTY_ASSIGNED_CONTEXT((#384))
GLOBAL_UNIT_ASSIGNED_CONTEXT((#387,#389,#390))
REPRESENTATION_CONTEXT('','3D')
);
#387=(
LENGTH_UNIT()
NAMED_UNIT(*)
SI_UNIT(.MILLI.,.METRE.)
);
#388=(
LENGTH_UNIT()
NAMED_UNIT(*)
SI_UNIT($,.METRE.)
);
#389=(
NAMED_UNIT(*)
PLANE_ANGLE_UNIT()
SI_UNIT($,.RADIAN.)
);
#390=(
NAMED_UNIT(*)
SI_UNIT($,.STERADIAN.)
SOLID_ANGLE_UNIT()
);
#391=SHAPE_DEFINITION_REPRESENTATION(#392,#393);
#392=PRODUCT_DEFINITION_SHAPE('',$,#395);
#393=SHAPE_REPRESENTATION('',(#219),#385);
#394=PRODUCT_DEFINITION_CONTEXT('part definition',#399,'design');
#395=PRODUCT_DEFINITION('18650','18650 v2',#396,#394);
#396=PRODUCT_DEFINITION_FORMATION('',$,#401);
#397=PRODUCT_RELATED_PRODUCT_CATEGORY('18650 v2','18650 v2',(#401));
#398=APPLICATION_PROTOCOL_DEFINITION('international standard',
'automotive_design',2009,#399);
#399=APPLICATION_CONTEXT(
'Core Data for Automotive Mechanical Design Process');
#400=PRODUCT_CONTEXT('part definition',#399,'mechanical');
#401=PRODUCT('18650','18650 v2',$,(#400));
#402=PRESENTATION_STYLE_ASSIGNMENT((#405));
#403=PRESENTATION_STYLE_ASSIGNMENT((#406));
#404=PRESENTATION_STYLE_ASSIGNMENT((#407));
#405=SURFACE_STYLE_USAGE(.BOTH.,#408);
#406=SURFACE_STYLE_USAGE(.BOTH.,#409);
#407=SURFACE_STYLE_USAGE(.BOTH.,#410);
#408=SURFACE_SIDE_STYLE('',(#411));
#409=SURFACE_SIDE_STYLE('',(#412));
#410=SURFACE_SIDE_STYLE('',(#413));
#411=SURFACE_STYLE_FILL_AREA(#414);
#412=SURFACE_STYLE_FILL_AREA(#415);
#413=SURFACE_STYLE_FILL_AREA(#416);
#414=FILL_AREA_STYLE('Steel - Satin',(#417));
#415=FILL_AREA_STYLE('Paint - Enamel Glossy (Green)',(#418));
#416=FILL_AREA_STYLE('Paint - Enamel Glossy (White)',(#419));
#417=FILL_AREA_STYLE_COLOUR('Steel - Satin',#420);
#418=FILL_AREA_STYLE_COLOUR('Paint - Enamel Glossy (Green)',#421);
#419=FILL_AREA_STYLE_COLOUR('Paint - Enamel Glossy (White)',#422);
#420=COLOUR_RGB('Steel - Satin',0.627450980392157,0.627450980392157,0.627450980392157);
#421=COLOUR_RGB('Paint - Enamel Glossy (Green)',0.266666666666667,0.588235294117647,
0.282352941176471);
#422=COLOUR_RGB('Paint - Enamel Glossy (White)',0.964705882352941,0.964705882352941,
0.952941176470588);
ENDSEC;
END-ISO-10303-21;
