ISO-10303-21;
HEADER;
/* Generated by software containing ST-Developer
 * from STEP Tools, Inc. (www.steptools.com) 
 */

FILE_DESCRIPTION(
/* description */ (''),
/* implementation_level */ '2;1');

FILE_NAME(
/* name */ 'Top Cover.step',
/* time_stamp */ '2026-07-19T12:04:22+05:30',
/* author */ (''),
/* organization */ (''),
/* preprocessor_version */ 'ST-DEVELOPER v20.1',
/* originating_system */ 'Autodesk Translation Framework v15.8.0.0',
/* authorisation */ '');

FILE_SCHEMA (('AUTOMOTIVE_DESIGN { 1 0 10303 214 3 1 1 }'));
ENDSEC;

DATA;
#10=MECHANICAL_DESIGN_GEOMETRIC_PRESENTATION_REPRESENTATION('',(#13),#2143);
#11=SHAPE_REPRESENTATION_RELATIONSHIP('SRR','None',#2150,#12);
#12=ADVANCED_BREP_SHAPE_REPRESENTATION('',(#14),#2142);
#13=STYLED_ITEM('',(#2160),#14);
#14=MANIFOLD_SOLID_BREP('Body2',#1299);
#15=FACE_BOUND('',#157,.T.);
#16=FACE_BOUND('',#158,.T.);
#17=FACE_BOUND('',#159,.T.);
#18=FACE_BOUND('',#160,.T.);
#19=FACE_BOUND('',#187,.T.);
#20=FACE_BOUND('',#198,.T.);
#21=FACE_BOUND('',#209,.T.);
#22=FACE_BOUND('',#220,.T.);
#23=PLANE('',#1316);
#24=PLANE('',#1320);
#25=PLANE('',#1324);
#26=PLANE('',#1328);
#27=PLANE('',#1329);
#28=PLANE('',#1330);
#29=PLANE('',#1339);
#30=PLANE('',#1340);
#31=PLANE('',#1341);
#32=PLANE('',#1342);
#33=PLANE('',#1343);
#34=PLANE('',#1344);
#35=PLANE('',#1345);
#36=PLANE('',#1346);
#37=PLANE('',#1347);
#38=PLANE('',#1348);
#39=PLANE('',#1349);
#40=PLANE('',#1350);
#41=PLANE('',#1351);
#42=PLANE('',#1353);
#43=PLANE('',#1355);
#44=PLANE('',#1357);
#45=PLANE('',#1361);
#46=PLANE('',#1364);
#47=PLANE('',#1365);
#48=PLANE('',#1366);
#49=PLANE('',#1369);
#50=PLANE('',#1370);
#51=PLANE('',#1371);
#52=PLANE('',#1374);
#53=PLANE('',#1377);
#54=PLANE('',#1378);
#55=PLANE('',#1379);
#56=PLANE('',#1382);
#57=PLANE('',#1383);
#58=PLANE('',#1384);
#59=PLANE('',#1387);
#60=PLANE('',#1388);
#61=PLANE('',#1391);
#62=PLANE('',#1392);
#63=PLANE('',#1393);
#64=PLANE('',#1396);
#65=PLANE('',#1397);
#66=PLANE('',#1400);
#67=PLANE('',#1401);
#68=PLANE('',#1404);
#69=PLANE('',#1405);
#70=PLANE('',#1406);
#71=PLANE('',#1409);
#72=PLANE('',#1410);
#73=PLANE('',#1411);
#74=PLANE('',#1412);
#75=PLANE('',#1413);
#76=PLANE('',#1414);
#77=FACE_OUTER_BOUND('',#147,.T.);
#78=FACE_OUTER_BOUND('',#148,.T.);
#79=FACE_OUTER_BOUND('',#149,.T.);
#80=FACE_OUTER_BOUND('',#150,.T.);
#81=FACE_OUTER_BOUND('',#151,.T.);
#82=FACE_OUTER_BOUND('',#152,.T.);
#83=FACE_OUTER_BOUND('',#153,.T.);
#84=FACE_OUTER_BOUND('',#154,.T.);
#85=FACE_OUTER_BOUND('',#155,.T.);
#86=FACE_OUTER_BOUND('',#156,.T.);
#87=FACE_OUTER_BOUND('',#161,.T.);
#88=FACE_OUTER_BOUND('',#162,.T.);
#89=FACE_OUTER_BOUND('',#163,.T.);
#90=FACE_OUTER_BOUND('',#164,.T.);
#91=FACE_OUTER_BOUND('',#165,.T.);
#92=FACE_OUTER_BOUND('',#166,.T.);
#93=FACE_OUTER_BOUND('',#167,.T.);
#94=FACE_OUTER_BOUND('',#168,.T.);
#95=FACE_OUTER_BOUND('',#169,.T.);
#96=FACE_OUTER_BOUND('',#170,.T.);
#97=FACE_OUTER_BOUND('',#171,.T.);
#98=FACE_OUTER_BOUND('',#172,.T.);
#99=FACE_OUTER_BOUND('',#173,.T.);
#100=FACE_OUTER_BOUND('',#174,.T.);
#101=FACE_OUTER_BOUND('',#175,.T.);
#102=FACE_OUTER_BOUND('',#176,.T.);
#103=FACE_OUTER_BOUND('',#177,.T.);
#104=FACE_OUTER_BOUND('',#178,.T.);
#105=FACE_OUTER_BOUND('',#179,.T.);
#106=FACE_OUTER_BOUND('',#180,.T.);
#107=FACE_OUTER_BOUND('',#181,.T.);
#108=FACE_OUTER_BOUND('',#182,.T.);
#109=FACE_OUTER_BOUND('',#183,.T.);
#110=FACE_OUTER_BOUND('',#184,.T.);
#111=FACE_OUTER_BOUND('',#185,.T.);
#112=FACE_OUTER_BOUND('',#186,.T.);
#113=FACE_OUTER_BOUND('',#188,.T.);
#114=FACE_OUTER_BOUND('',#189,.T.);
#115=FACE_OUTER_BOUND('',#190,.T.);
#116=FACE_OUTER_BOUND('',#191,.T.);
#117=FACE_OUTER_BOUND('',#192,.T.);
#118=FACE_OUTER_BOUND('',#193,.T.);
#119=FACE_OUTER_BOUND('',#194,.T.);
#120=FACE_OUTER_BOUND('',#195,.T.);
#121=FACE_OUTER_BOUND('',#196,.T.);
#122=FACE_OUTER_BOUND('',#197,.T.);
#123=FACE_OUTER_BOUND('',#199,.T.);
#124=FACE_OUTER_BOUND('',#200,.T.);
#125=FACE_OUTER_BOUND('',#201,.T.);
#126=FACE_OUTER_BOUND('',#202,.T.);
#127=FACE_OUTER_BOUND('',#203,.T.);
#128=FACE_OUTER_BOUND('',#204,.T.);
#129=FACE_OUTER_BOUND('',#205,.T.);
#130=FACE_OUTER_BOUND('',#206,.T.);
#131=FACE_OUTER_BOUND('',#207,.T.);
#132=FACE_OUTER_BOUND('',#208,.T.);
#133=FACE_OUTER_BOUND('',#210,.T.);
#134=FACE_OUTER_BOUND('',#211,.T.);
#135=FACE_OUTER_BOUND('',#212,.T.);
#136=FACE_OUTER_BOUND('',#213,.T.);
#137=FACE_OUTER_BOUND('',#214,.T.);
#138=FACE_OUTER_BOUND('',#215,.T.);
#139=FACE_OUTER_BOUND('',#216,.T.);
#140=FACE_OUTER_BOUND('',#217,.T.);
#141=FACE_OUTER_BOUND('',#218,.T.);
#142=FACE_OUTER_BOUND('',#219,.T.);
#143=FACE_OUTER_BOUND('',#221,.T.);
#144=FACE_OUTER_BOUND('',#222,.T.);
#145=FACE_OUTER_BOUND('',#223,.T.);
#146=FACE_OUTER_BOUND('',#224,.T.);
#147=EDGE_LOOP('',(#853,#854,#855,#856));
#148=EDGE_LOOP('',(#857,#858,#859,#860));
#149=EDGE_LOOP('',(#861,#862,#863,#864));
#150=EDGE_LOOP('',(#865,#866,#867,#868));
#151=EDGE_LOOP('',(#869,#870,#871,#872));
#152=EDGE_LOOP('',(#873,#874,#875,#876));
#153=EDGE_LOOP('',(#877,#878,#879,#880));
#154=EDGE_LOOP('',(#881,#882,#883,#884));
#155=EDGE_LOOP('',(#885,#886,#887,#888));
#156=EDGE_LOOP('',(#889,#890,#891,#892,#893,#894,#895,#896,#897,#898,#899,
#900,#901,#902,#903,#904,#905,#906,#907,#908,#909,#910,#911,#912));
#157=EDGE_LOOP('',(#913,#914,#915,#916,#917,#918,#919,#920));
#158=EDGE_LOOP('',(#921,#922,#923,#924,#925,#926,#927,#928));
#159=EDGE_LOOP('',(#929,#930,#931,#932,#933,#934,#935,#936));
#160=EDGE_LOOP('',(#937,#938,#939,#940,#941,#942,#943,#944));
#161=EDGE_LOOP('',(#945,#946,#947,#948));
#162=EDGE_LOOP('',(#949,#950,#951,#952));
#163=EDGE_LOOP('',(#953,#954,#955,#956));
#164=EDGE_LOOP('',(#957,#958,#959,#960));
#165=EDGE_LOOP('',(#961,#962,#963,#964));
#166=EDGE_LOOP('',(#965,#966,#967,#968));
#167=EDGE_LOOP('',(#969,#970,#971,#972));
#168=EDGE_LOOP('',(#973,#974,#975,#976));
#169=EDGE_LOOP('',(#977,#978,#979,#980));
#170=EDGE_LOOP('',(#981,#982,#983,#984));
#171=EDGE_LOOP('',(#985,#986,#987,#988));
#172=EDGE_LOOP('',(#989,#990,#991,#992));
#173=EDGE_LOOP('',(#993));
#174=EDGE_LOOP('',(#994));
#175=EDGE_LOOP('',(#995));
#176=EDGE_LOOP('',(#996));
#177=EDGE_LOOP('',(#997,#998,#999,#1000));
#178=EDGE_LOOP('',(#1001,#1002,#1003,#1004));
#179=EDGE_LOOP('',(#1005,#1006,#1007,#1008));
#180=EDGE_LOOP('',(#1009,#1010,#1011,#1012));
#181=EDGE_LOOP('',(#1013,#1014,#1015,#1016));
#182=EDGE_LOOP('',(#1017,#1018,#1019,#1020));
#183=EDGE_LOOP('',(#1021,#1022,#1023,#1024));
#184=EDGE_LOOP('',(#1025,#1026,#1027,#1028));
#185=EDGE_LOOP('',(#1029,#1030,#1031,#1032));
#186=EDGE_LOOP('',(#1033,#1034,#1035,#1036,#1037,#1038,#1039,#1040));
#187=EDGE_LOOP('',(#1041));
#188=EDGE_LOOP('',(#1042,#1043,#1044,#1045));
#189=EDGE_LOOP('',(#1046,#1047,#1048,#1049));
#190=EDGE_LOOP('',(#1050,#1051,#1052,#1053));
#191=EDGE_LOOP('',(#1054,#1055,#1056,#1057));
#192=EDGE_LOOP('',(#1058,#1059,#1060,#1061));
#193=EDGE_LOOP('',(#1062,#1063,#1064,#1065));
#194=EDGE_LOOP('',(#1066,#1067,#1068,#1069));
#195=EDGE_LOOP('',(#1070,#1071,#1072,#1073));
#196=EDGE_LOOP('',(#1074,#1075,#1076,#1077));
#197=EDGE_LOOP('',(#1078,#1079,#1080,#1081,#1082,#1083,#1084,#1085));
#198=EDGE_LOOP('',(#1086));
#199=EDGE_LOOP('',(#1087,#1088,#1089,#1090));
#200=EDGE_LOOP('',(#1091,#1092,#1093,#1094));
#201=EDGE_LOOP('',(#1095,#1096,#1097,#1098));
#202=EDGE_LOOP('',(#1099,#1100,#1101,#1102));
#203=EDGE_LOOP('',(#1103,#1104,#1105,#1106));
#204=EDGE_LOOP('',(#1107,#1108,#1109,#1110));
#205=EDGE_LOOP('',(#1111,#1112,#1113,#1114));
#206=EDGE_LOOP('',(#1115,#1116,#1117,#1118));
#207=EDGE_LOOP('',(#1119,#1120,#1121,#1122));
#208=EDGE_LOOP('',(#1123,#1124,#1125,#1126,#1127,#1128,#1129,#1130));
#209=EDGE_LOOP('',(#1131));
#210=EDGE_LOOP('',(#1132,#1133,#1134,#1135));
#211=EDGE_LOOP('',(#1136,#1137,#1138,#1139));
#212=EDGE_LOOP('',(#1140,#1141,#1142,#1143));
#213=EDGE_LOOP('',(#1144,#1145,#1146,#1147));
#214=EDGE_LOOP('',(#1148,#1149,#1150,#1151));
#215=EDGE_LOOP('',(#1152,#1153,#1154,#1155));
#216=EDGE_LOOP('',(#1156,#1157,#1158,#1159));
#217=EDGE_LOOP('',(#1160,#1161,#1162,#1163));
#218=EDGE_LOOP('',(#1164,#1165,#1166,#1167));
#219=EDGE_LOOP('',(#1168,#1169,#1170,#1171,#1172,#1173,#1174,#1175));
#220=EDGE_LOOP('',(#1176));
#221=EDGE_LOOP('',(#1177,#1178,#1179,#1180));
#222=EDGE_LOOP('',(#1181,#1182,#1183,#1184));
#223=EDGE_LOOP('',(#1185,#1186,#1187,#1188));
#224=EDGE_LOOP('',(#1189,#1190,#1191,#1192,#1193,#1194,#1195,#1196,#1197,
#1198,#1199,#1200,#1201,#1202,#1203,#1204,#1205,#1206,#1207,#1208,#1209,
#1210,#1211,#1212));
#225=LINE('',#1775,#373);
#226=LINE('',#1778,#374);
#227=LINE('',#1781,#375);
#228=LINE('',#1783,#376);
#229=LINE('',#1784,#377);
#230=LINE('',#1789,#378);
#231=LINE('',#1793,#379);
#232=LINE('',#1795,#380);
#233=LINE('',#1796,#381);
#234=LINE('',#1802,#382);
#235=LINE('',#1805,#383);
#236=LINE('',#1808,#384);
#237=LINE('',#1810,#385);
#238=LINE('',#1811,#386);
#239=LINE('',#1817,#387);
#240=LINE('',#1820,#388);
#241=LINE('',#1822,#389);
#242=LINE('',#1823,#390);
#243=LINE('',#1827,#391);
#244=LINE('',#1829,#392);
#245=LINE('',#1831,#393);
#246=LINE('',#1832,#394);
#247=LINE('',#1835,#395);
#248=LINE('',#1837,#396);
#249=LINE('',#1838,#397);
#250=LINE('',#1840,#398);
#251=LINE('',#1842,#399);
#252=LINE('',#1844,#400);
#253=LINE('',#1846,#401);
#254=LINE('',#1848,#402);
#255=LINE('',#1850,#403);
#256=LINE('',#1852,#404);
#257=LINE('',#1853,#405);
#258=LINE('',#1855,#406);
#259=LINE('',#1857,#407);
#260=LINE('',#1859,#408);
#261=LINE('',#1860,#409);
#262=LINE('',#1863,#410);
#263=LINE('',#1867,#411);
#264=LINE('',#1869,#412);
#265=LINE('',#1871,#413);
#266=LINE('',#1875,#414);
#267=LINE('',#1876,#415);
#268=LINE('',#1879,#416);
#269=LINE('',#1881,#417);
#270=LINE('',#1885,#418);
#271=LINE('',#1887,#419);
#272=LINE('',#1889,#420);
#273=LINE('',#1892,#421);
#274=LINE('',#1895,#422);
#275=LINE('',#1897,#423);
#276=LINE('',#1901,#424);
#277=LINE('',#1903,#425);
#278=LINE('',#1905,#426);
#279=LINE('',#1908,#427);
#280=LINE('',#1911,#428);
#281=LINE('',#1915,#429);
#282=LINE('',#1917,#430);
#283=LINE('',#1919,#431);
#284=LINE('',#1923,#432);
#285=LINE('',#1924,#433);
#286=LINE('',#1927,#434);
#287=LINE('',#1928,#435);
#288=LINE('',#1931,#436);
#289=LINE('',#1932,#437);
#290=LINE('',#1935,#438);
#291=LINE('',#1937,#439);
#292=LINE('',#1938,#440);
#293=LINE('',#1941,#441);
#294=LINE('',#1942,#442);
#295=LINE('',#1944,#443);
#296=LINE('',#1947,#444);
#297=LINE('',#1948,#445);
#298=LINE('',#1951,#446);
#299=LINE('',#1952,#447);
#300=LINE('',#1955,#448);
#301=LINE('',#1956,#449);
#302=LINE('',#1959,#450);
#303=LINE('',#1961,#451);
#304=LINE('',#1962,#452);
#305=LINE('',#1965,#453);
#306=LINE('',#1966,#454);
#307=LINE('',#1969,#455);
#308=LINE('',#1970,#456);
#309=LINE('',#1972,#457);
#310=LINE('',#1988,#458);
#311=LINE('',#1991,#459);
#312=LINE('',#1993,#460);
#313=LINE('',#1994,#461);
#314=LINE('',#1998,#462);
#315=LINE('',#2001,#463);
#316=LINE('',#2002,#464);
#317=LINE('',#2005,#465);
#318=LINE('',#2006,#466);
#319=LINE('',#2009,#467);
#320=LINE('',#2010,#468);
#321=LINE('',#2014,#469);
#322=LINE('',#2017,#470);
#323=LINE('',#2018,#471);
#324=LINE('',#2020,#472);
#325=LINE('',#2025,#473);
#326=LINE('',#2028,#474);
#327=LINE('',#2030,#475);
#328=LINE('',#2031,#476);
#329=LINE('',#2035,#477);
#330=LINE('',#2038,#478);
#331=LINE('',#2039,#479);
#332=LINE('',#2042,#480);
#333=LINE('',#2043,#481);
#334=LINE('',#2046,#482);
#335=LINE('',#2047,#483);
#336=LINE('',#2051,#484);
#337=LINE('',#2054,#485);
#338=LINE('',#2055,#486);
#339=LINE('',#2057,#487);
#340=LINE('',#2062,#488);
#341=LINE('',#2065,#489);
#342=LINE('',#2067,#490);
#343=LINE('',#2068,#491);
#344=LINE('',#2071,#492);
#345=LINE('',#2072,#493);
#346=LINE('',#2076,#494);
#347=LINE('',#2079,#495);
#348=LINE('',#2080,#496);
#349=LINE('',#2083,#497);
#350=LINE('',#2084,#498);
#351=LINE('',#2087,#499);
#352=LINE('',#2088,#500);
#353=LINE('',#2092,#501);
#354=LINE('',#2094,#502);
#355=LINE('',#2099,#503);
#356=LINE('',#2102,#504);
#357=LINE('',#2104,#505);
#358=LINE('',#2105,#506);
#359=LINE('',#2108,#507);
#360=LINE('',#2109,#508);
#361=LINE('',#2113,#509);
#362=LINE('',#2116,#510);
#363=LINE('',#2117,#511);
#364=LINE('',#2120,#512);
#365=LINE('',#2121,#513);
#366=LINE('',#2124,#514);
#367=LINE('',#2125,#515);
#368=LINE('',#2129,#516);
#369=LINE('',#2131,#517);
#370=LINE('',#2134,#518);
#371=LINE('',#2136,#519);
#372=LINE('',#2138,#520);
#373=VECTOR('',#1421,10.);
#374=VECTOR('',#1424,10.);
#375=VECTOR('',#1427,10.);
#376=VECTOR('',#1428,10.);
#377=VECTOR('',#1429,10.);
#378=VECTOR('',#1434,10.);
#379=VECTOR('',#1439,10.);
#380=VECTOR('',#1440,10.);
#381=VECTOR('',#1441,10.);
#382=VECTOR('',#1446,10.);
#383=VECTOR('',#1449,10.);
#384=VECTOR('',#1452,10.);
#385=VECTOR('',#1453,10.);
#386=VECTOR('',#1454,10.);
#387=VECTOR('',#1459,10.);
#388=VECTOR('',#1462,10.);
#389=VECTOR('',#1465,10.);
#390=VECTOR('',#1466,10.);
#391=VECTOR('',#1469,10.);
#392=VECTOR('',#1470,10.);
#393=VECTOR('',#1471,10.);
#394=VECTOR('',#1472,10.);
#395=VECTOR('',#1475,10.);
#396=VECTOR('',#1476,10.);
#397=VECTOR('',#1477,10.);
#398=VECTOR('',#1478,10.);
#399=VECTOR('',#1479,10.);
#400=VECTOR('',#1480,10.);
#401=VECTOR('',#1481,10.);
#402=VECTOR('',#1482,10.);
#403=VECTOR('',#1483,10.);
#404=VECTOR('',#1484,10.);
#405=VECTOR('',#1485,10.);
#406=VECTOR('',#1486,10.);
#407=VECTOR('',#1487,10.);
#408=VECTOR('',#1488,10.);
#409=VECTOR('',#1489,10.);
#410=VECTOR('',#1490,10.);
#411=VECTOR('',#1493,10.);
#412=VECTOR('',#1494,10.);
#413=VECTOR('',#1495,10.);
#414=VECTOR('',#1498,10.);
#415=VECTOR('',#1499,10.);
#416=VECTOR('',#1500,10.);
#417=VECTOR('',#1501,10.);
#418=VECTOR('',#1504,10.);
#419=VECTOR('',#1505,10.);
#420=VECTOR('',#1506,10.);
#421=VECTOR('',#1509,10.);
#422=VECTOR('',#1510,10.);
#423=VECTOR('',#1511,10.);
#424=VECTOR('',#1514,10.);
#425=VECTOR('',#1515,10.);
#426=VECTOR('',#1516,10.);
#427=VECTOR('',#1519,10.);
#428=VECTOR('',#1520,10.);
#429=VECTOR('',#1523,10.);
#430=VECTOR('',#1524,10.);
#431=VECTOR('',#1525,10.);
#432=VECTOR('',#1528,10.);
#433=VECTOR('',#1529,10.);
#434=VECTOR('',#1532,10.);
#435=VECTOR('',#1533,10.);
#436=VECTOR('',#1536,10.);
#437=VECTOR('',#1537,10.);
#438=VECTOR('',#1540,10.);
#439=VECTOR('',#1541,10.);
#440=VECTOR('',#1542,10.);
#441=VECTOR('',#1545,10.);
#442=VECTOR('',#1546,10.);
#443=VECTOR('',#1549,10.);
#444=VECTOR('',#1552,10.);
#445=VECTOR('',#1553,10.);
#446=VECTOR('',#1556,10.);
#447=VECTOR('',#1557,10.);
#448=VECTOR('',#1560,10.);
#449=VECTOR('',#1561,10.);
#450=VECTOR('',#1564,10.);
#451=VECTOR('',#1565,10.);
#452=VECTOR('',#1566,10.);
#453=VECTOR('',#1569,10.);
#454=VECTOR('',#1570,10.);
#455=VECTOR('',#1573,10.);
#456=VECTOR('',#1574,10.);
#457=VECTOR('',#1577,10.);
#458=VECTOR('',#1598,7.5);
#459=VECTOR('',#1601,10.);
#460=VECTOR('',#1602,10.);
#461=VECTOR('',#1603,10.);
#462=VECTOR('',#1608,10.);
#463=VECTOR('',#1611,10.);
#464=VECTOR('',#1612,10.);
#465=VECTOR('',#1615,10.);
#466=VECTOR('',#1616,10.);
#467=VECTOR('',#1619,10.);
#468=VECTOR('',#1620,10.);
#469=VECTOR('',#1625,10.);
#470=VECTOR('',#1628,10.);
#471=VECTOR('',#1629,10.);
#472=VECTOR('',#1632,10.);
#473=VECTOR('',#1639,7.5);
#474=VECTOR('',#1642,10.);
#475=VECTOR('',#1643,10.);
#476=VECTOR('',#1644,10.);
#477=VECTOR('',#1649,10.);
#478=VECTOR('',#1652,10.);
#479=VECTOR('',#1653,10.);
#480=VECTOR('',#1656,10.);
#481=VECTOR('',#1657,10.);
#482=VECTOR('',#1660,10.);
#483=VECTOR('',#1661,10.);
#484=VECTOR('',#1666,10.);
#485=VECTOR('',#1669,10.);
#486=VECTOR('',#1670,10.);
#487=VECTOR('',#1673,10.);
#488=VECTOR('',#1680,7.5);
#489=VECTOR('',#1683,10.);
#490=VECTOR('',#1684,10.);
#491=VECTOR('',#1685,10.);
#492=VECTOR('',#1688,10.);
#493=VECTOR('',#1689,10.);
#494=VECTOR('',#1694,10.);
#495=VECTOR('',#1697,10.);
#496=VECTOR('',#1698,10.);
#497=VECTOR('',#1701,10.);
#498=VECTOR('',#1702,10.);
#499=VECTOR('',#1705,10.);
#500=VECTOR('',#1706,10.);
#501=VECTOR('',#1711,10.);
#502=VECTOR('',#1714,10.);
#503=VECTOR('',#1721,7.5);
#504=VECTOR('',#1724,10.);
#505=VECTOR('',#1725,10.);
#506=VECTOR('',#1726,10.);
#507=VECTOR('',#1729,10.);
#508=VECTOR('',#1730,10.);
#509=VECTOR('',#1735,10.);
#510=VECTOR('',#1738,10.);
#511=VECTOR('',#1739,10.);
#512=VECTOR('',#1742,10.);
#513=VECTOR('',#1743,10.);
#514=VECTOR('',#1746,10.);
#515=VECTOR('',#1747,10.);
#516=VECTOR('',#1752,10.);
#517=VECTOR('',#1755,10.);
#518=VECTOR('',#1760,10.);
#519=VECTOR('',#1763,10.);
#520=VECTOR('',#1766,10.);
#521=CIRCLE('',#1314,5.);
#522=CIRCLE('',#1315,5.);
#523=CIRCLE('',#1318,5.);
#524=CIRCLE('',#1319,5.);
#525=CIRCLE('',#1322,5.);
#526=CIRCLE('',#1323,5.);
#527=CIRCLE('',#1326,5.);
#528=CIRCLE('',#1327,5.);
#529=CIRCLE('',#1331,10.);
#530=CIRCLE('',#1332,10.);
#531=CIRCLE('',#1333,10.);
#532=CIRCLE('',#1334,10.);
#533=CIRCLE('',#1335,10.);
#534=CIRCLE('',#1336,10.);
#535=CIRCLE('',#1337,10.);
#536=CIRCLE('',#1338,9.99999999999999);
#537=CIRCLE('',#1352,7.5);
#538=CIRCLE('',#1354,7.5);
#539=CIRCLE('',#1356,7.5);
#540=CIRCLE('',#1358,7.5);
#541=CIRCLE('',#1360,7.5);
#542=CIRCLE('',#1363,10.);
#543=CIRCLE('',#1368,9.99999999999999);
#544=CIRCLE('',#1373,7.5);
#545=CIRCLE('',#1376,10.);
#546=CIRCLE('',#1381,10.);
#547=CIRCLE('',#1386,7.5);
#548=CIRCLE('',#1390,10.);
#549=CIRCLE('',#1395,10.);
#550=CIRCLE('',#1399,7.5);
#551=CIRCLE('',#1403,10.);
#552=CIRCLE('',#1408,10.);
#553=VERTEX_POINT('',#1771);
#554=VERTEX_POINT('',#1772);
#555=VERTEX_POINT('',#1774);
#556=VERTEX_POINT('',#1776);
#557=VERTEX_POINT('',#1780);
#558=VERTEX_POINT('',#1782);
#559=VERTEX_POINT('',#1786);
#560=VERTEX_POINT('',#1788);
#561=VERTEX_POINT('',#1792);
#562=VERTEX_POINT('',#1794);
#563=VERTEX_POINT('',#1798);
#564=VERTEX_POINT('',#1799);
#565=VERTEX_POINT('',#1801);
#566=VERTEX_POINT('',#1803);
#567=VERTEX_POINT('',#1807);
#568=VERTEX_POINT('',#1809);
#569=VERTEX_POINT('',#1813);
#570=VERTEX_POINT('',#1814);
#571=VERTEX_POINT('',#1816);
#572=VERTEX_POINT('',#1818);
#573=VERTEX_POINT('',#1825);
#574=VERTEX_POINT('',#1826);
#575=VERTEX_POINT('',#1828);
#576=VERTEX_POINT('',#1830);
#577=VERTEX_POINT('',#1834);
#578=VERTEX_POINT('',#1836);
#579=VERTEX_POINT('',#1839);
#580=VERTEX_POINT('',#1841);
#581=VERTEX_POINT('',#1843);
#582=VERTEX_POINT('',#1845);
#583=VERTEX_POINT('',#1847);
#584=VERTEX_POINT('',#1849);
#585=VERTEX_POINT('',#1851);
#586=VERTEX_POINT('',#1854);
#587=VERTEX_POINT('',#1856);
#588=VERTEX_POINT('',#1858);
#589=VERTEX_POINT('',#1861);
#590=VERTEX_POINT('',#1862);
#591=VERTEX_POINT('',#1864);
#592=VERTEX_POINT('',#1866);
#593=VERTEX_POINT('',#1868);
#594=VERTEX_POINT('',#1870);
#595=VERTEX_POINT('',#1872);
#596=VERTEX_POINT('',#1874);
#597=VERTEX_POINT('',#1877);
#598=VERTEX_POINT('',#1878);
#599=VERTEX_POINT('',#1880);
#600=VERTEX_POINT('',#1882);
#601=VERTEX_POINT('',#1884);
#602=VERTEX_POINT('',#1886);
#603=VERTEX_POINT('',#1888);
#604=VERTEX_POINT('',#1890);
#605=VERTEX_POINT('',#1893);
#606=VERTEX_POINT('',#1894);
#607=VERTEX_POINT('',#1896);
#608=VERTEX_POINT('',#1898);
#609=VERTEX_POINT('',#1900);
#610=VERTEX_POINT('',#1902);
#611=VERTEX_POINT('',#1904);
#612=VERTEX_POINT('',#1906);
#613=VERTEX_POINT('',#1909);
#614=VERTEX_POINT('',#1910);
#615=VERTEX_POINT('',#1912);
#616=VERTEX_POINT('',#1914);
#617=VERTEX_POINT('',#1916);
#618=VERTEX_POINT('',#1918);
#619=VERTEX_POINT('',#1920);
#620=VERTEX_POINT('',#1922);
#621=VERTEX_POINT('',#1926);
#622=VERTEX_POINT('',#1930);
#623=VERTEX_POINT('',#1934);
#624=VERTEX_POINT('',#1936);
#625=VERTEX_POINT('',#1940);
#626=VERTEX_POINT('',#1946);
#627=VERTEX_POINT('',#1950);
#628=VERTEX_POINT('',#1954);
#629=VERTEX_POINT('',#1958);
#630=VERTEX_POINT('',#1960);
#631=VERTEX_POINT('',#1964);
#632=VERTEX_POINT('',#1968);
#633=VERTEX_POINT('',#1974);
#634=VERTEX_POINT('',#1977);
#635=VERTEX_POINT('',#1980);
#636=VERTEX_POINT('',#1983);
#637=VERTEX_POINT('',#1986);
#638=VERTEX_POINT('',#1990);
#639=VERTEX_POINT('',#1992);
#640=VERTEX_POINT('',#1996);
#641=VERTEX_POINT('',#2000);
#642=VERTEX_POINT('',#2004);
#643=VERTEX_POINT('',#2008);
#644=VERTEX_POINT('',#2012);
#645=VERTEX_POINT('',#2016);
#646=VERTEX_POINT('',#2023);
#647=VERTEX_POINT('',#2027);
#648=VERTEX_POINT('',#2029);
#649=VERTEX_POINT('',#2033);
#650=VERTEX_POINT('',#2037);
#651=VERTEX_POINT('',#2041);
#652=VERTEX_POINT('',#2045);
#653=VERTEX_POINT('',#2049);
#654=VERTEX_POINT('',#2053);
#655=VERTEX_POINT('',#2060);
#656=VERTEX_POINT('',#2064);
#657=VERTEX_POINT('',#2066);
#658=VERTEX_POINT('',#2070);
#659=VERTEX_POINT('',#2074);
#660=VERTEX_POINT('',#2078);
#661=VERTEX_POINT('',#2082);
#662=VERTEX_POINT('',#2086);
#663=VERTEX_POINT('',#2090);
#664=VERTEX_POINT('',#2097);
#665=VERTEX_POINT('',#2101);
#666=VERTEX_POINT('',#2103);
#667=VERTEX_POINT('',#2107);
#668=VERTEX_POINT('',#2111);
#669=VERTEX_POINT('',#2115);
#670=VERTEX_POINT('',#2119);
#671=VERTEX_POINT('',#2123);
#672=VERTEX_POINT('',#2127);
#673=EDGE_CURVE('',#553,#554,#521,.T.);
#674=EDGE_CURVE('',#554,#555,#225,.T.);
#675=EDGE_CURVE('',#555,#556,#522,.T.);
#676=EDGE_CURVE('',#556,#553,#226,.T.);
#677=EDGE_CURVE('',#557,#554,#227,.T.);
#678=EDGE_CURVE('',#558,#557,#228,.T.);
#679=EDGE_CURVE('',#555,#558,#229,.T.);
#680=EDGE_CURVE('',#557,#559,#523,.T.);
#681=EDGE_CURVE('',#559,#560,#230,.T.);
#682=EDGE_CURVE('',#560,#558,#524,.T.);
#683=EDGE_CURVE('',#561,#559,#231,.T.);
#684=EDGE_CURVE('',#562,#561,#232,.T.);
#685=EDGE_CURVE('',#560,#562,#233,.T.);
#686=EDGE_CURVE('',#563,#564,#525,.T.);
#687=EDGE_CURVE('',#564,#565,#234,.T.);
#688=EDGE_CURVE('',#565,#566,#526,.T.);
#689=EDGE_CURVE('',#566,#563,#235,.T.);
#690=EDGE_CURVE('',#564,#567,#236,.T.);
#691=EDGE_CURVE('',#568,#567,#237,.T.);
#692=EDGE_CURVE('',#565,#568,#238,.T.);
#693=EDGE_CURVE('',#569,#570,#527,.T.);
#694=EDGE_CURVE('',#570,#571,#239,.T.);
#695=EDGE_CURVE('',#571,#572,#528,.T.);
#696=EDGE_CURVE('',#572,#569,#240,.T.);
#697=EDGE_CURVE('',#571,#566,#241,.T.);
#698=EDGE_CURVE('',#570,#563,#242,.T.);
#699=EDGE_CURVE('',#573,#574,#243,.T.);
#700=EDGE_CURVE('',#574,#575,#244,.T.);
#701=EDGE_CURVE('',#575,#576,#245,.T.);
#702=EDGE_CURVE('',#576,#573,#246,.T.);
#703=EDGE_CURVE('',#573,#577,#247,.T.);
#704=EDGE_CURVE('',#578,#577,#248,.T.);
#705=EDGE_CURVE('',#578,#556,#249,.T.);
#706=EDGE_CURVE('',#579,#562,#250,.T.);
#707=EDGE_CURVE('',#579,#580,#251,.T.);
#708=EDGE_CURVE('',#581,#580,#252,.T.);
#709=EDGE_CURVE('',#581,#582,#253,.T.);
#710=EDGE_CURVE('',#583,#582,#254,.T.);
#711=EDGE_CURVE('',#583,#584,#255,.T.);
#712=EDGE_CURVE('',#585,#584,#256,.T.);
#713=EDGE_CURVE('',#585,#572,#257,.T.);
#714=EDGE_CURVE('',#586,#568,#258,.T.);
#715=EDGE_CURVE('',#586,#587,#259,.T.);
#716=EDGE_CURVE('',#588,#587,#260,.T.);
#717=EDGE_CURVE('',#588,#574,#261,.T.);
#718=EDGE_CURVE('',#589,#590,#262,.T.);
#719=EDGE_CURVE('',#590,#591,#529,.T.);
#720=EDGE_CURVE('',#591,#592,#263,.T.);
#721=EDGE_CURVE('',#592,#593,#264,.T.);
#722=EDGE_CURVE('',#593,#594,#265,.T.);
#723=EDGE_CURVE('',#594,#595,#530,.T.);
#724=EDGE_CURVE('',#595,#596,#266,.T.);
#725=EDGE_CURVE('',#596,#589,#267,.T.);
#726=EDGE_CURVE('',#597,#598,#268,.T.);
#727=EDGE_CURVE('',#598,#599,#269,.T.);
#728=EDGE_CURVE('',#599,#600,#531,.T.);
#729=EDGE_CURVE('',#600,#601,#270,.T.);
#730=EDGE_CURVE('',#601,#602,#271,.T.);
#731=EDGE_CURVE('',#602,#603,#272,.T.);
#732=EDGE_CURVE('',#603,#604,#532,.T.);
#733=EDGE_CURVE('',#604,#597,#273,.T.);
#734=EDGE_CURVE('',#605,#606,#274,.T.);
#735=EDGE_CURVE('',#606,#607,#275,.T.);
#736=EDGE_CURVE('',#607,#608,#533,.T.);
#737=EDGE_CURVE('',#608,#609,#276,.T.);
#738=EDGE_CURVE('',#609,#610,#277,.T.);
#739=EDGE_CURVE('',#610,#611,#278,.T.);
#740=EDGE_CURVE('',#611,#612,#534,.T.);
#741=EDGE_CURVE('',#612,#605,#279,.T.);
#742=EDGE_CURVE('',#613,#614,#280,.T.);
#743=EDGE_CURVE('',#614,#615,#535,.T.);
#744=EDGE_CURVE('',#615,#616,#281,.T.);
#745=EDGE_CURVE('',#616,#617,#282,.T.);
#746=EDGE_CURVE('',#617,#618,#283,.T.);
#747=EDGE_CURVE('',#618,#619,#536,.T.);
#748=EDGE_CURVE('',#619,#620,#284,.T.);
#749=EDGE_CURVE('',#620,#613,#285,.T.);
#750=EDGE_CURVE('',#576,#621,#286,.T.);
#751=EDGE_CURVE('',#577,#621,#287,.T.);
#752=EDGE_CURVE('',#621,#622,#288,.T.);
#753=EDGE_CURVE('',#622,#578,#289,.T.);
#754=EDGE_CURVE('',#587,#623,#290,.T.);
#755=EDGE_CURVE('',#623,#624,#291,.T.);
#756=EDGE_CURVE('',#624,#588,#292,.T.);
#757=EDGE_CURVE('',#625,#586,#293,.T.);
#758=EDGE_CURVE('',#625,#623,#294,.T.);
#759=EDGE_CURVE('',#567,#625,#295,.T.);
#760=EDGE_CURVE('',#561,#626,#296,.T.);
#761=EDGE_CURVE('',#626,#579,#297,.T.);
#762=EDGE_CURVE('',#627,#626,#298,.T.);
#763=EDGE_CURVE('',#580,#627,#299,.T.);
#764=EDGE_CURVE('',#627,#628,#300,.T.);
#765=EDGE_CURVE('',#628,#581,#301,.T.);
#766=EDGE_CURVE('',#584,#629,#302,.T.);
#767=EDGE_CURVE('',#629,#630,#303,.T.);
#768=EDGE_CURVE('',#630,#585,#304,.T.);
#769=EDGE_CURVE('',#631,#583,#305,.T.);
#770=EDGE_CURVE('',#629,#631,#306,.T.);
#771=EDGE_CURVE('',#582,#632,#307,.T.);
#772=EDGE_CURVE('',#632,#631,#308,.T.);
#773=EDGE_CURVE('',#632,#628,#309,.T.);
#774=EDGE_CURVE('',#633,#633,#537,.T.);
#775=EDGE_CURVE('',#634,#634,#538,.T.);
#776=EDGE_CURVE('',#635,#635,#539,.T.);
#777=EDGE_CURVE('',#636,#636,#540,.T.);
#778=EDGE_CURVE('',#637,#637,#541,.T.);
#779=EDGE_CURVE('',#637,#635,#310,.T.);
#780=EDGE_CURVE('',#613,#638,#311,.T.);
#781=EDGE_CURVE('',#639,#638,#312,.T.);
#782=EDGE_CURVE('',#614,#639,#313,.T.);
#783=EDGE_CURVE('',#640,#639,#542,.T.);
#784=EDGE_CURVE('',#615,#640,#314,.T.);
#785=EDGE_CURVE('',#641,#640,#315,.T.);
#786=EDGE_CURVE('',#616,#641,#316,.T.);
#787=EDGE_CURVE('',#642,#641,#317,.T.);
#788=EDGE_CURVE('',#617,#642,#318,.T.);
#789=EDGE_CURVE('',#643,#642,#319,.T.);
#790=EDGE_CURVE('',#618,#643,#320,.T.);
#791=EDGE_CURVE('',#644,#643,#543,.T.);
#792=EDGE_CURVE('',#619,#644,#321,.T.);
#793=EDGE_CURVE('',#645,#644,#322,.T.);
#794=EDGE_CURVE('',#620,#645,#323,.T.);
#795=EDGE_CURVE('',#638,#645,#324,.T.);
#796=EDGE_CURVE('',#646,#646,#544,.T.);
#797=EDGE_CURVE('',#646,#633,#325,.T.);
#798=EDGE_CURVE('',#589,#647,#326,.T.);
#799=EDGE_CURVE('',#648,#647,#327,.T.);
#800=EDGE_CURVE('',#590,#648,#328,.T.);
#801=EDGE_CURVE('',#649,#648,#545,.T.);
#802=EDGE_CURVE('',#591,#649,#329,.T.);
#803=EDGE_CURVE('',#650,#649,#330,.T.);
#804=EDGE_CURVE('',#592,#650,#331,.T.);
#805=EDGE_CURVE('',#651,#650,#332,.T.);
#806=EDGE_CURVE('',#593,#651,#333,.T.);
#807=EDGE_CURVE('',#652,#651,#334,.T.);
#808=EDGE_CURVE('',#594,#652,#335,.T.);
#809=EDGE_CURVE('',#653,#652,#546,.T.);
#810=EDGE_CURVE('',#595,#653,#336,.T.);
#811=EDGE_CURVE('',#654,#653,#337,.T.);
#812=EDGE_CURVE('',#596,#654,#338,.T.);
#813=EDGE_CURVE('',#647,#654,#339,.T.);
#814=EDGE_CURVE('',#655,#655,#547,.T.);
#815=EDGE_CURVE('',#655,#634,#340,.T.);
#816=EDGE_CURVE('',#605,#656,#341,.T.);
#817=EDGE_CURVE('',#657,#656,#342,.T.);
#818=EDGE_CURVE('',#606,#657,#343,.T.);
#819=EDGE_CURVE('',#658,#657,#344,.T.);
#820=EDGE_CURVE('',#607,#658,#345,.T.);
#821=EDGE_CURVE('',#659,#658,#548,.T.);
#822=EDGE_CURVE('',#608,#659,#346,.T.);
#823=EDGE_CURVE('',#660,#659,#347,.T.);
#824=EDGE_CURVE('',#609,#660,#348,.T.);
#825=EDGE_CURVE('',#661,#660,#349,.T.);
#826=EDGE_CURVE('',#610,#661,#350,.T.);
#827=EDGE_CURVE('',#662,#661,#351,.T.);
#828=EDGE_CURVE('',#611,#662,#352,.T.);
#829=EDGE_CURVE('',#663,#662,#549,.T.);
#830=EDGE_CURVE('',#612,#663,#353,.T.);
#831=EDGE_CURVE('',#656,#663,#354,.T.);
#832=EDGE_CURVE('',#664,#664,#550,.T.);
#833=EDGE_CURVE('',#664,#636,#355,.T.);
#834=EDGE_CURVE('',#597,#665,#356,.T.);
#835=EDGE_CURVE('',#666,#665,#357,.T.);
#836=EDGE_CURVE('',#598,#666,#358,.T.);
#837=EDGE_CURVE('',#667,#666,#359,.T.);
#838=EDGE_CURVE('',#599,#667,#360,.T.);
#839=EDGE_CURVE('',#668,#667,#551,.T.);
#840=EDGE_CURVE('',#600,#668,#361,.T.);
#841=EDGE_CURVE('',#669,#668,#362,.T.);
#842=EDGE_CURVE('',#601,#669,#363,.T.);
#843=EDGE_CURVE('',#670,#669,#364,.T.);
#844=EDGE_CURVE('',#602,#670,#365,.T.);
#845=EDGE_CURVE('',#671,#670,#366,.T.);
#846=EDGE_CURVE('',#603,#671,#367,.T.);
#847=EDGE_CURVE('',#672,#671,#552,.T.);
#848=EDGE_CURVE('',#604,#672,#368,.T.);
#849=EDGE_CURVE('',#665,#672,#369,.T.);
#850=EDGE_CURVE('',#569,#630,#370,.T.);
#851=EDGE_CURVE('',#622,#553,#371,.T.);
#852=EDGE_CURVE('',#624,#575,#372,.T.);
#853=ORIENTED_EDGE('',*,*,#673,.T.);
#854=ORIENTED_EDGE('',*,*,#674,.T.);
#855=ORIENTED_EDGE('',*,*,#675,.T.);
#856=ORIENTED_EDGE('',*,*,#676,.T.);
#857=ORIENTED_EDGE('',*,*,#674,.F.);
#858=ORIENTED_EDGE('',*,*,#677,.F.);
#859=ORIENTED_EDGE('',*,*,#678,.F.);
#860=ORIENTED_EDGE('',*,*,#679,.F.);
#861=ORIENTED_EDGE('',*,*,#680,.T.);
#862=ORIENTED_EDGE('',*,*,#681,.T.);
#863=ORIENTED_EDGE('',*,*,#682,.T.);
#864=ORIENTED_EDGE('',*,*,#678,.T.);
#865=ORIENTED_EDGE('',*,*,#681,.F.);
#866=ORIENTED_EDGE('',*,*,#683,.F.);
#867=ORIENTED_EDGE('',*,*,#684,.F.);
#868=ORIENTED_EDGE('',*,*,#685,.F.);
#869=ORIENTED_EDGE('',*,*,#686,.T.);
#870=ORIENTED_EDGE('',*,*,#687,.T.);
#871=ORIENTED_EDGE('',*,*,#688,.T.);
#872=ORIENTED_EDGE('',*,*,#689,.T.);
#873=ORIENTED_EDGE('',*,*,#687,.F.);
#874=ORIENTED_EDGE('',*,*,#690,.T.);
#875=ORIENTED_EDGE('',*,*,#691,.F.);
#876=ORIENTED_EDGE('',*,*,#692,.F.);
#877=ORIENTED_EDGE('',*,*,#693,.T.);
#878=ORIENTED_EDGE('',*,*,#694,.T.);
#879=ORIENTED_EDGE('',*,*,#695,.T.);
#880=ORIENTED_EDGE('',*,*,#696,.T.);
#881=ORIENTED_EDGE('',*,*,#689,.F.);
#882=ORIENTED_EDGE('',*,*,#697,.F.);
#883=ORIENTED_EDGE('',*,*,#694,.F.);
#884=ORIENTED_EDGE('',*,*,#698,.T.);
#885=ORIENTED_EDGE('',*,*,#699,.T.);
#886=ORIENTED_EDGE('',*,*,#700,.T.);
#887=ORIENTED_EDGE('',*,*,#701,.T.);
#888=ORIENTED_EDGE('',*,*,#702,.T.);
#889=ORIENTED_EDGE('',*,*,#699,.F.);
#890=ORIENTED_EDGE('',*,*,#703,.T.);
#891=ORIENTED_EDGE('',*,*,#704,.F.);
#892=ORIENTED_EDGE('',*,*,#705,.T.);
#893=ORIENTED_EDGE('',*,*,#675,.F.);
#894=ORIENTED_EDGE('',*,*,#679,.T.);
#895=ORIENTED_EDGE('',*,*,#682,.F.);
#896=ORIENTED_EDGE('',*,*,#685,.T.);
#897=ORIENTED_EDGE('',*,*,#706,.F.);
#898=ORIENTED_EDGE('',*,*,#707,.T.);
#899=ORIENTED_EDGE('',*,*,#708,.F.);
#900=ORIENTED_EDGE('',*,*,#709,.T.);
#901=ORIENTED_EDGE('',*,*,#710,.F.);
#902=ORIENTED_EDGE('',*,*,#711,.T.);
#903=ORIENTED_EDGE('',*,*,#712,.F.);
#904=ORIENTED_EDGE('',*,*,#713,.T.);
#905=ORIENTED_EDGE('',*,*,#695,.F.);
#906=ORIENTED_EDGE('',*,*,#697,.T.);
#907=ORIENTED_EDGE('',*,*,#688,.F.);
#908=ORIENTED_EDGE('',*,*,#692,.T.);
#909=ORIENTED_EDGE('',*,*,#714,.F.);
#910=ORIENTED_EDGE('',*,*,#715,.T.);
#911=ORIENTED_EDGE('',*,*,#716,.F.);
#912=ORIENTED_EDGE('',*,*,#717,.T.);
#913=ORIENTED_EDGE('',*,*,#718,.T.);
#914=ORIENTED_EDGE('',*,*,#719,.T.);
#915=ORIENTED_EDGE('',*,*,#720,.T.);
#916=ORIENTED_EDGE('',*,*,#721,.T.);
#917=ORIENTED_EDGE('',*,*,#722,.T.);
#918=ORIENTED_EDGE('',*,*,#723,.T.);
#919=ORIENTED_EDGE('',*,*,#724,.T.);
#920=ORIENTED_EDGE('',*,*,#725,.T.);
#921=ORIENTED_EDGE('',*,*,#726,.T.);
#922=ORIENTED_EDGE('',*,*,#727,.T.);
#923=ORIENTED_EDGE('',*,*,#728,.T.);
#924=ORIENTED_EDGE('',*,*,#729,.T.);
#925=ORIENTED_EDGE('',*,*,#730,.T.);
#926=ORIENTED_EDGE('',*,*,#731,.T.);
#927=ORIENTED_EDGE('',*,*,#732,.T.);
#928=ORIENTED_EDGE('',*,*,#733,.T.);
#929=ORIENTED_EDGE('',*,*,#734,.T.);
#930=ORIENTED_EDGE('',*,*,#735,.T.);
#931=ORIENTED_EDGE('',*,*,#736,.T.);
#932=ORIENTED_EDGE('',*,*,#737,.T.);
#933=ORIENTED_EDGE('',*,*,#738,.T.);
#934=ORIENTED_EDGE('',*,*,#739,.T.);
#935=ORIENTED_EDGE('',*,*,#740,.T.);
#936=ORIENTED_EDGE('',*,*,#741,.T.);
#937=ORIENTED_EDGE('',*,*,#742,.T.);
#938=ORIENTED_EDGE('',*,*,#743,.T.);
#939=ORIENTED_EDGE('',*,*,#744,.T.);
#940=ORIENTED_EDGE('',*,*,#745,.T.);
#941=ORIENTED_EDGE('',*,*,#746,.T.);
#942=ORIENTED_EDGE('',*,*,#747,.T.);
#943=ORIENTED_EDGE('',*,*,#748,.T.);
#944=ORIENTED_EDGE('',*,*,#749,.T.);
#945=ORIENTED_EDGE('',*,*,#702,.F.);
#946=ORIENTED_EDGE('',*,*,#750,.T.);
#947=ORIENTED_EDGE('',*,*,#751,.F.);
#948=ORIENTED_EDGE('',*,*,#703,.F.);
#949=ORIENTED_EDGE('',*,*,#704,.T.);
#950=ORIENTED_EDGE('',*,*,#751,.T.);
#951=ORIENTED_EDGE('',*,*,#752,.T.);
#952=ORIENTED_EDGE('',*,*,#753,.T.);
#953=ORIENTED_EDGE('',*,*,#716,.T.);
#954=ORIENTED_EDGE('',*,*,#754,.T.);
#955=ORIENTED_EDGE('',*,*,#755,.T.);
#956=ORIENTED_EDGE('',*,*,#756,.T.);
#957=ORIENTED_EDGE('',*,*,#754,.F.);
#958=ORIENTED_EDGE('',*,*,#715,.F.);
#959=ORIENTED_EDGE('',*,*,#757,.F.);
#960=ORIENTED_EDGE('',*,*,#758,.T.);
#961=ORIENTED_EDGE('',*,*,#714,.T.);
#962=ORIENTED_EDGE('',*,*,#691,.T.);
#963=ORIENTED_EDGE('',*,*,#759,.T.);
#964=ORIENTED_EDGE('',*,*,#757,.T.);
#965=ORIENTED_EDGE('',*,*,#706,.T.);
#966=ORIENTED_EDGE('',*,*,#684,.T.);
#967=ORIENTED_EDGE('',*,*,#760,.T.);
#968=ORIENTED_EDGE('',*,*,#761,.T.);
#969=ORIENTED_EDGE('',*,*,#761,.F.);
#970=ORIENTED_EDGE('',*,*,#762,.F.);
#971=ORIENTED_EDGE('',*,*,#763,.F.);
#972=ORIENTED_EDGE('',*,*,#707,.F.);
#973=ORIENTED_EDGE('',*,*,#708,.T.);
#974=ORIENTED_EDGE('',*,*,#763,.T.);
#975=ORIENTED_EDGE('',*,*,#764,.T.);
#976=ORIENTED_EDGE('',*,*,#765,.T.);
#977=ORIENTED_EDGE('',*,*,#712,.T.);
#978=ORIENTED_EDGE('',*,*,#766,.T.);
#979=ORIENTED_EDGE('',*,*,#767,.T.);
#980=ORIENTED_EDGE('',*,*,#768,.T.);
#981=ORIENTED_EDGE('',*,*,#766,.F.);
#982=ORIENTED_EDGE('',*,*,#711,.F.);
#983=ORIENTED_EDGE('',*,*,#769,.F.);
#984=ORIENTED_EDGE('',*,*,#770,.F.);
#985=ORIENTED_EDGE('',*,*,#710,.T.);
#986=ORIENTED_EDGE('',*,*,#771,.T.);
#987=ORIENTED_EDGE('',*,*,#772,.T.);
#988=ORIENTED_EDGE('',*,*,#769,.T.);
#989=ORIENTED_EDGE('',*,*,#765,.F.);
#990=ORIENTED_EDGE('',*,*,#773,.F.);
#991=ORIENTED_EDGE('',*,*,#771,.F.);
#992=ORIENTED_EDGE('',*,*,#709,.F.);
#993=ORIENTED_EDGE('',*,*,#774,.F.);
#994=ORIENTED_EDGE('',*,*,#775,.F.);
#995=ORIENTED_EDGE('',*,*,#776,.F.);
#996=ORIENTED_EDGE('',*,*,#777,.F.);
#997=ORIENTED_EDGE('',*,*,#778,.F.);
#998=ORIENTED_EDGE('',*,*,#779,.T.);
#999=ORIENTED_EDGE('',*,*,#776,.T.);
#1000=ORIENTED_EDGE('',*,*,#779,.F.);
#1001=ORIENTED_EDGE('',*,*,#742,.F.);
#1002=ORIENTED_EDGE('',*,*,#780,.T.);
#1003=ORIENTED_EDGE('',*,*,#781,.F.);
#1004=ORIENTED_EDGE('',*,*,#782,.F.);
#1005=ORIENTED_EDGE('',*,*,#743,.F.);
#1006=ORIENTED_EDGE('',*,*,#782,.T.);
#1007=ORIENTED_EDGE('',*,*,#783,.F.);
#1008=ORIENTED_EDGE('',*,*,#784,.F.);
#1009=ORIENTED_EDGE('',*,*,#744,.F.);
#1010=ORIENTED_EDGE('',*,*,#784,.T.);
#1011=ORIENTED_EDGE('',*,*,#785,.F.);
#1012=ORIENTED_EDGE('',*,*,#786,.F.);
#1013=ORIENTED_EDGE('',*,*,#745,.F.);
#1014=ORIENTED_EDGE('',*,*,#786,.T.);
#1015=ORIENTED_EDGE('',*,*,#787,.F.);
#1016=ORIENTED_EDGE('',*,*,#788,.F.);
#1017=ORIENTED_EDGE('',*,*,#746,.F.);
#1018=ORIENTED_EDGE('',*,*,#788,.T.);
#1019=ORIENTED_EDGE('',*,*,#789,.F.);
#1020=ORIENTED_EDGE('',*,*,#790,.F.);
#1021=ORIENTED_EDGE('',*,*,#747,.F.);
#1022=ORIENTED_EDGE('',*,*,#790,.T.);
#1023=ORIENTED_EDGE('',*,*,#791,.F.);
#1024=ORIENTED_EDGE('',*,*,#792,.F.);
#1025=ORIENTED_EDGE('',*,*,#748,.F.);
#1026=ORIENTED_EDGE('',*,*,#792,.T.);
#1027=ORIENTED_EDGE('',*,*,#793,.F.);
#1028=ORIENTED_EDGE('',*,*,#794,.F.);
#1029=ORIENTED_EDGE('',*,*,#749,.F.);
#1030=ORIENTED_EDGE('',*,*,#794,.T.);
#1031=ORIENTED_EDGE('',*,*,#795,.F.);
#1032=ORIENTED_EDGE('',*,*,#780,.F.);
#1033=ORIENTED_EDGE('',*,*,#795,.T.);
#1034=ORIENTED_EDGE('',*,*,#793,.T.);
#1035=ORIENTED_EDGE('',*,*,#791,.T.);
#1036=ORIENTED_EDGE('',*,*,#789,.T.);
#1037=ORIENTED_EDGE('',*,*,#787,.T.);
#1038=ORIENTED_EDGE('',*,*,#785,.T.);
#1039=ORIENTED_EDGE('',*,*,#783,.T.);
#1040=ORIENTED_EDGE('',*,*,#781,.T.);
#1041=ORIENTED_EDGE('',*,*,#778,.T.);
#1042=ORIENTED_EDGE('',*,*,#796,.F.);
#1043=ORIENTED_EDGE('',*,*,#797,.T.);
#1044=ORIENTED_EDGE('',*,*,#774,.T.);
#1045=ORIENTED_EDGE('',*,*,#797,.F.);
#1046=ORIENTED_EDGE('',*,*,#718,.F.);
#1047=ORIENTED_EDGE('',*,*,#798,.T.);
#1048=ORIENTED_EDGE('',*,*,#799,.F.);
#1049=ORIENTED_EDGE('',*,*,#800,.F.);
#1050=ORIENTED_EDGE('',*,*,#719,.F.);
#1051=ORIENTED_EDGE('',*,*,#800,.T.);
#1052=ORIENTED_EDGE('',*,*,#801,.F.);
#1053=ORIENTED_EDGE('',*,*,#802,.F.);
#1054=ORIENTED_EDGE('',*,*,#720,.F.);
#1055=ORIENTED_EDGE('',*,*,#802,.T.);
#1056=ORIENTED_EDGE('',*,*,#803,.F.);
#1057=ORIENTED_EDGE('',*,*,#804,.F.);
#1058=ORIENTED_EDGE('',*,*,#721,.F.);
#1059=ORIENTED_EDGE('',*,*,#804,.T.);
#1060=ORIENTED_EDGE('',*,*,#805,.F.);
#1061=ORIENTED_EDGE('',*,*,#806,.F.);
#1062=ORIENTED_EDGE('',*,*,#722,.F.);
#1063=ORIENTED_EDGE('',*,*,#806,.T.);
#1064=ORIENTED_EDGE('',*,*,#807,.F.);
#1065=ORIENTED_EDGE('',*,*,#808,.F.);
#1066=ORIENTED_EDGE('',*,*,#723,.F.);
#1067=ORIENTED_EDGE('',*,*,#808,.T.);
#1068=ORIENTED_EDGE('',*,*,#809,.F.);
#1069=ORIENTED_EDGE('',*,*,#810,.F.);
#1070=ORIENTED_EDGE('',*,*,#724,.F.);
#1071=ORIENTED_EDGE('',*,*,#810,.T.);
#1072=ORIENTED_EDGE('',*,*,#811,.F.);
#1073=ORIENTED_EDGE('',*,*,#812,.F.);
#1074=ORIENTED_EDGE('',*,*,#725,.F.);
#1075=ORIENTED_EDGE('',*,*,#812,.T.);
#1076=ORIENTED_EDGE('',*,*,#813,.F.);
#1077=ORIENTED_EDGE('',*,*,#798,.F.);
#1078=ORIENTED_EDGE('',*,*,#813,.T.);
#1079=ORIENTED_EDGE('',*,*,#811,.T.);
#1080=ORIENTED_EDGE('',*,*,#809,.T.);
#1081=ORIENTED_EDGE('',*,*,#807,.T.);
#1082=ORIENTED_EDGE('',*,*,#805,.T.);
#1083=ORIENTED_EDGE('',*,*,#803,.T.);
#1084=ORIENTED_EDGE('',*,*,#801,.T.);
#1085=ORIENTED_EDGE('',*,*,#799,.T.);
#1086=ORIENTED_EDGE('',*,*,#796,.T.);
#1087=ORIENTED_EDGE('',*,*,#814,.F.);
#1088=ORIENTED_EDGE('',*,*,#815,.T.);
#1089=ORIENTED_EDGE('',*,*,#775,.T.);
#1090=ORIENTED_EDGE('',*,*,#815,.F.);
#1091=ORIENTED_EDGE('',*,*,#734,.F.);
#1092=ORIENTED_EDGE('',*,*,#816,.T.);
#1093=ORIENTED_EDGE('',*,*,#817,.F.);
#1094=ORIENTED_EDGE('',*,*,#818,.F.);
#1095=ORIENTED_EDGE('',*,*,#735,.F.);
#1096=ORIENTED_EDGE('',*,*,#818,.T.);
#1097=ORIENTED_EDGE('',*,*,#819,.F.);
#1098=ORIENTED_EDGE('',*,*,#820,.F.);
#1099=ORIENTED_EDGE('',*,*,#736,.F.);
#1100=ORIENTED_EDGE('',*,*,#820,.T.);
#1101=ORIENTED_EDGE('',*,*,#821,.F.);
#1102=ORIENTED_EDGE('',*,*,#822,.F.);
#1103=ORIENTED_EDGE('',*,*,#737,.F.);
#1104=ORIENTED_EDGE('',*,*,#822,.T.);
#1105=ORIENTED_EDGE('',*,*,#823,.F.);
#1106=ORIENTED_EDGE('',*,*,#824,.F.);
#1107=ORIENTED_EDGE('',*,*,#738,.F.);
#1108=ORIENTED_EDGE('',*,*,#824,.T.);
#1109=ORIENTED_EDGE('',*,*,#825,.F.);
#1110=ORIENTED_EDGE('',*,*,#826,.F.);
#1111=ORIENTED_EDGE('',*,*,#739,.F.);
#1112=ORIENTED_EDGE('',*,*,#826,.T.);
#1113=ORIENTED_EDGE('',*,*,#827,.F.);
#1114=ORIENTED_EDGE('',*,*,#828,.F.);
#1115=ORIENTED_EDGE('',*,*,#740,.F.);
#1116=ORIENTED_EDGE('',*,*,#828,.T.);
#1117=ORIENTED_EDGE('',*,*,#829,.F.);
#1118=ORIENTED_EDGE('',*,*,#830,.F.);
#1119=ORIENTED_EDGE('',*,*,#741,.F.);
#1120=ORIENTED_EDGE('',*,*,#830,.T.);
#1121=ORIENTED_EDGE('',*,*,#831,.F.);
#1122=ORIENTED_EDGE('',*,*,#816,.F.);
#1123=ORIENTED_EDGE('',*,*,#831,.T.);
#1124=ORIENTED_EDGE('',*,*,#829,.T.);
#1125=ORIENTED_EDGE('',*,*,#827,.T.);
#1126=ORIENTED_EDGE('',*,*,#825,.T.);
#1127=ORIENTED_EDGE('',*,*,#823,.T.);
#1128=ORIENTED_EDGE('',*,*,#821,.T.);
#1129=ORIENTED_EDGE('',*,*,#819,.T.);
#1130=ORIENTED_EDGE('',*,*,#817,.T.);
#1131=ORIENTED_EDGE('',*,*,#814,.T.);
#1132=ORIENTED_EDGE('',*,*,#832,.F.);
#1133=ORIENTED_EDGE('',*,*,#833,.T.);
#1134=ORIENTED_EDGE('',*,*,#777,.T.);
#1135=ORIENTED_EDGE('',*,*,#833,.F.);
#1136=ORIENTED_EDGE('',*,*,#726,.F.);
#1137=ORIENTED_EDGE('',*,*,#834,.T.);
#1138=ORIENTED_EDGE('',*,*,#835,.F.);
#1139=ORIENTED_EDGE('',*,*,#836,.F.);
#1140=ORIENTED_EDGE('',*,*,#727,.F.);
#1141=ORIENTED_EDGE('',*,*,#836,.T.);
#1142=ORIENTED_EDGE('',*,*,#837,.F.);
#1143=ORIENTED_EDGE('',*,*,#838,.F.);
#1144=ORIENTED_EDGE('',*,*,#728,.F.);
#1145=ORIENTED_EDGE('',*,*,#838,.T.);
#1146=ORIENTED_EDGE('',*,*,#839,.F.);
#1147=ORIENTED_EDGE('',*,*,#840,.F.);
#1148=ORIENTED_EDGE('',*,*,#729,.F.);
#1149=ORIENTED_EDGE('',*,*,#840,.T.);
#1150=ORIENTED_EDGE('',*,*,#841,.F.);
#1151=ORIENTED_EDGE('',*,*,#842,.F.);
#1152=ORIENTED_EDGE('',*,*,#730,.F.);
#1153=ORIENTED_EDGE('',*,*,#842,.T.);
#1154=ORIENTED_EDGE('',*,*,#843,.F.);
#1155=ORIENTED_EDGE('',*,*,#844,.F.);
#1156=ORIENTED_EDGE('',*,*,#731,.F.);
#1157=ORIENTED_EDGE('',*,*,#844,.T.);
#1158=ORIENTED_EDGE('',*,*,#845,.F.);
#1159=ORIENTED_EDGE('',*,*,#846,.F.);
#1160=ORIENTED_EDGE('',*,*,#732,.F.);
#1161=ORIENTED_EDGE('',*,*,#846,.T.);
#1162=ORIENTED_EDGE('',*,*,#847,.F.);
#1163=ORIENTED_EDGE('',*,*,#848,.F.);
#1164=ORIENTED_EDGE('',*,*,#733,.F.);
#1165=ORIENTED_EDGE('',*,*,#848,.T.);
#1166=ORIENTED_EDGE('',*,*,#849,.F.);
#1167=ORIENTED_EDGE('',*,*,#834,.F.);
#1168=ORIENTED_EDGE('',*,*,#849,.T.);
#1169=ORIENTED_EDGE('',*,*,#847,.T.);
#1170=ORIENTED_EDGE('',*,*,#845,.T.);
#1171=ORIENTED_EDGE('',*,*,#843,.T.);
#1172=ORIENTED_EDGE('',*,*,#841,.T.);
#1173=ORIENTED_EDGE('',*,*,#839,.T.);
#1174=ORIENTED_EDGE('',*,*,#837,.T.);
#1175=ORIENTED_EDGE('',*,*,#835,.T.);
#1176=ORIENTED_EDGE('',*,*,#832,.T.);
#1177=ORIENTED_EDGE('',*,*,#696,.F.);
#1178=ORIENTED_EDGE('',*,*,#713,.F.);
#1179=ORIENTED_EDGE('',*,*,#768,.F.);
#1180=ORIENTED_EDGE('',*,*,#850,.F.);
#1181=ORIENTED_EDGE('',*,*,#676,.F.);
#1182=ORIENTED_EDGE('',*,*,#705,.F.);
#1183=ORIENTED_EDGE('',*,*,#753,.F.);
#1184=ORIENTED_EDGE('',*,*,#851,.T.);
#1185=ORIENTED_EDGE('',*,*,#700,.F.);
#1186=ORIENTED_EDGE('',*,*,#717,.F.);
#1187=ORIENTED_EDGE('',*,*,#756,.F.);
#1188=ORIENTED_EDGE('',*,*,#852,.T.);
#1189=ORIENTED_EDGE('',*,*,#701,.F.);
#1190=ORIENTED_EDGE('',*,*,#852,.F.);
#1191=ORIENTED_EDGE('',*,*,#755,.F.);
#1192=ORIENTED_EDGE('',*,*,#758,.F.);
#1193=ORIENTED_EDGE('',*,*,#759,.F.);
#1194=ORIENTED_EDGE('',*,*,#690,.F.);
#1195=ORIENTED_EDGE('',*,*,#686,.F.);
#1196=ORIENTED_EDGE('',*,*,#698,.F.);
#1197=ORIENTED_EDGE('',*,*,#693,.F.);
#1198=ORIENTED_EDGE('',*,*,#850,.T.);
#1199=ORIENTED_EDGE('',*,*,#767,.F.);
#1200=ORIENTED_EDGE('',*,*,#770,.T.);
#1201=ORIENTED_EDGE('',*,*,#772,.F.);
#1202=ORIENTED_EDGE('',*,*,#773,.T.);
#1203=ORIENTED_EDGE('',*,*,#764,.F.);
#1204=ORIENTED_EDGE('',*,*,#762,.T.);
#1205=ORIENTED_EDGE('',*,*,#760,.F.);
#1206=ORIENTED_EDGE('',*,*,#683,.T.);
#1207=ORIENTED_EDGE('',*,*,#680,.F.);
#1208=ORIENTED_EDGE('',*,*,#677,.T.);
#1209=ORIENTED_EDGE('',*,*,#673,.F.);
#1210=ORIENTED_EDGE('',*,*,#851,.F.);
#1211=ORIENTED_EDGE('',*,*,#752,.F.);
#1212=ORIENTED_EDGE('',*,*,#750,.F.);
#1213=CYLINDRICAL_SURFACE('',#1313,5.);
#1214=CYLINDRICAL_SURFACE('',#1317,5.);
#1215=CYLINDRICAL_SURFACE('',#1321,5.);
#1216=CYLINDRICAL_SURFACE('',#1325,5.);
#1217=CYLINDRICAL_SURFACE('',#1359,7.5);
#1218=CYLINDRICAL_SURFACE('',#1362,10.);
#1219=CYLINDRICAL_SURFACE('',#1367,9.99999999999999);
#1220=CYLINDRICAL_SURFACE('',#1372,7.5);
#1221=CYLINDRICAL_SURFACE('',#1375,10.);
#1222=CYLINDRICAL_SURFACE('',#1380,10.);
#1223=CYLINDRICAL_SURFACE('',#1385,7.5);
#1224=CYLINDRICAL_SURFACE('',#1389,10.);
#1225=CYLINDRICAL_SURFACE('',#1394,10.);
#1226=CYLINDRICAL_SURFACE('',#1398,7.5);
#1227=CYLINDRICAL_SURFACE('',#1402,10.);
#1228=CYLINDRICAL_SURFACE('',#1407,10.);
#1229=ADVANCED_FACE('',(#77),#1213,.F.);
#1230=ADVANCED_FACE('',(#78),#23,.T.);
#1231=ADVANCED_FACE('',(#79),#1214,.F.);
#1232=ADVANCED_FACE('',(#80),#24,.T.);
#1233=ADVANCED_FACE('',(#81),#1215,.F.);
#1234=ADVANCED_FACE('',(#82),#25,.T.);
#1235=ADVANCED_FACE('',(#83),#1216,.F.);
#1236=ADVANCED_FACE('',(#84),#26,.T.);
#1237=ADVANCED_FACE('',(#85),#27,.T.);
#1238=ADVANCED_FACE('',(#86,#15,#16,#17,#18),#28,.T.);
#1239=ADVANCED_FACE('',(#87),#29,.T.);
#1240=ADVANCED_FACE('',(#88),#30,.T.);
#1241=ADVANCED_FACE('',(#89),#31,.T.);
#1242=ADVANCED_FACE('',(#90),#32,.T.);
#1243=ADVANCED_FACE('',(#91),#33,.T.);
#1244=ADVANCED_FACE('',(#92),#34,.T.);
#1245=ADVANCED_FACE('',(#93),#35,.T.);
#1246=ADVANCED_FACE('',(#94),#36,.T.);
#1247=ADVANCED_FACE('',(#95),#37,.T.);
#1248=ADVANCED_FACE('',(#96),#38,.T.);
#1249=ADVANCED_FACE('',(#97),#39,.T.);
#1250=ADVANCED_FACE('',(#98),#40,.T.);
#1251=ADVANCED_FACE('',(#99),#41,.T.);
#1252=ADVANCED_FACE('',(#100),#42,.T.);
#1253=ADVANCED_FACE('',(#101),#43,.T.);
#1254=ADVANCED_FACE('',(#102),#44,.T.);
#1255=ADVANCED_FACE('',(#103),#1217,.F.);
#1256=ADVANCED_FACE('',(#104),#45,.T.);
#1257=ADVANCED_FACE('',(#105),#1218,.T.);
#1258=ADVANCED_FACE('',(#106),#46,.T.);
#1259=ADVANCED_FACE('',(#107),#47,.T.);
#1260=ADVANCED_FACE('',(#108),#48,.T.);
#1261=ADVANCED_FACE('',(#109),#1219,.T.);
#1262=ADVANCED_FACE('',(#110),#49,.T.);
#1263=ADVANCED_FACE('',(#111),#50,.T.);
#1264=ADVANCED_FACE('',(#112,#19),#51,.T.);
#1265=ADVANCED_FACE('',(#113),#1220,.F.);
#1266=ADVANCED_FACE('',(#114),#52,.T.);
#1267=ADVANCED_FACE('',(#115),#1221,.T.);
#1268=ADVANCED_FACE('',(#116),#53,.T.);
#1269=ADVANCED_FACE('',(#117),#54,.T.);
#1270=ADVANCED_FACE('',(#118),#55,.T.);
#1271=ADVANCED_FACE('',(#119),#1222,.T.);
#1272=ADVANCED_FACE('',(#120),#56,.T.);
#1273=ADVANCED_FACE('',(#121),#57,.T.);
#1274=ADVANCED_FACE('',(#122,#20),#58,.T.);
#1275=ADVANCED_FACE('',(#123),#1223,.F.);
#1276=ADVANCED_FACE('',(#124),#59,.T.);
#1277=ADVANCED_FACE('',(#125),#60,.T.);
#1278=ADVANCED_FACE('',(#126),#1224,.T.);
#1279=ADVANCED_FACE('',(#127),#61,.T.);
#1280=ADVANCED_FACE('',(#128),#62,.T.);
#1281=ADVANCED_FACE('',(#129),#63,.T.);
#1282=ADVANCED_FACE('',(#130),#1225,.T.);
#1283=ADVANCED_FACE('',(#131),#64,.T.);
#1284=ADVANCED_FACE('',(#132,#21),#65,.T.);
#1285=ADVANCED_FACE('',(#133),#1226,.F.);
#1286=ADVANCED_FACE('',(#134),#66,.T.);
#1287=ADVANCED_FACE('',(#135),#67,.T.);
#1288=ADVANCED_FACE('',(#136),#1227,.T.);
#1289=ADVANCED_FACE('',(#137),#68,.T.);
#1290=ADVANCED_FACE('',(#138),#69,.T.);
#1291=ADVANCED_FACE('',(#139),#70,.T.);
#1292=ADVANCED_FACE('',(#140),#1228,.T.);
#1293=ADVANCED_FACE('',(#141),#71,.T.);
#1294=ADVANCED_FACE('',(#142,#22),#72,.T.);
#1295=ADVANCED_FACE('',(#143),#73,.T.);
#1296=ADVANCED_FACE('',(#144),#74,.T.);
#1297=ADVANCED_FACE('',(#145),#75,.T.);
#1298=ADVANCED_FACE('',(#146),#76,.F.);
#1299=CLOSED_SHELL('',(#1229,#1230,#1231,#1232,#1233,#1234,#1235,#1236,
#1237,#1238,#1239,#1240,#1241,#1242,#1243,#1244,#1245,#1246,#1247,#1248,
#1249,#1250,#1251,#1252,#1253,#1254,#1255,#1256,#1257,#1258,#1259,#1260,
#1261,#1262,#1263,#1264,#1265,#1266,#1267,#1268,#1269,#1270,#1271,#1272,
#1273,#1274,#1275,#1276,#1277,#1278,#1279,#1280,#1281,#1282,#1283,#1284,
#1285,#1286,#1287,#1288,#1289,#1290,#1291,#1292,#1293,#1294,#1295,#1296,
#1297,#1298));
#1300=DERIVED_UNIT_ELEMENT(#1302,1.);
#1301=DERIVED_UNIT_ELEMENT(#2145,-3.);
#1302=(
MASS_UNIT()
NAMED_UNIT(*)
SI_UNIT(.KILO.,.GRAM.)
);
#1303=DERIVED_UNIT((#1300,#1301));
#1304=MEASURE_REPRESENTATION_ITEM('density measure',
POSITIVE_RATIO_MEASURE(7850.),#1303);
#1305=PROPERTY_DEFINITION_REPRESENTATION(#1310,#1307);
#1306=PROPERTY_DEFINITION_REPRESENTATION(#1311,#1308);
#1307=REPRESENTATION('material name',(#1309),#2142);
#1308=REPRESENTATION('density',(#1304),#2142);
#1309=DESCRIPTIVE_REPRESENTATION_ITEM('Steel','Steel');
#1310=PROPERTY_DEFINITION('material property','material name',#2152);
#1311=PROPERTY_DEFINITION('material property','density of part',#2152);
#1312=AXIS2_PLACEMENT_3D('',#1769,#1415,#1416);
#1313=AXIS2_PLACEMENT_3D('',#1770,#1417,#1418);
#1314=AXIS2_PLACEMENT_3D('',#1773,#1419,#1420);
#1315=AXIS2_PLACEMENT_3D('',#1777,#1422,#1423);
#1316=AXIS2_PLACEMENT_3D('',#1779,#1425,#1426);
#1317=AXIS2_PLACEMENT_3D('',#1785,#1430,#1431);
#1318=AXIS2_PLACEMENT_3D('',#1787,#1432,#1433);
#1319=AXIS2_PLACEMENT_3D('',#1790,#1435,#1436);
#1320=AXIS2_PLACEMENT_3D('',#1791,#1437,#1438);
#1321=AXIS2_PLACEMENT_3D('',#1797,#1442,#1443);
#1322=AXIS2_PLACEMENT_3D('',#1800,#1444,#1445);
#1323=AXIS2_PLACEMENT_3D('',#1804,#1447,#1448);
#1324=AXIS2_PLACEMENT_3D('',#1806,#1450,#1451);
#1325=AXIS2_PLACEMENT_3D('',#1812,#1455,#1456);
#1326=AXIS2_PLACEMENT_3D('',#1815,#1457,#1458);
#1327=AXIS2_PLACEMENT_3D('',#1819,#1460,#1461);
#1328=AXIS2_PLACEMENT_3D('',#1821,#1463,#1464);
#1329=AXIS2_PLACEMENT_3D('',#1824,#1467,#1468);
#1330=AXIS2_PLACEMENT_3D('',#1833,#1473,#1474);
#1331=AXIS2_PLACEMENT_3D('',#1865,#1491,#1492);
#1332=AXIS2_PLACEMENT_3D('',#1873,#1496,#1497);
#1333=AXIS2_PLACEMENT_3D('',#1883,#1502,#1503);
#1334=AXIS2_PLACEMENT_3D('',#1891,#1507,#1508);
#1335=AXIS2_PLACEMENT_3D('',#1899,#1512,#1513);
#1336=AXIS2_PLACEMENT_3D('',#1907,#1517,#1518);
#1337=AXIS2_PLACEMENT_3D('',#1913,#1521,#1522);
#1338=AXIS2_PLACEMENT_3D('',#1921,#1526,#1527);
#1339=AXIS2_PLACEMENT_3D('',#1925,#1530,#1531);
#1340=AXIS2_PLACEMENT_3D('',#1929,#1534,#1535);
#1341=AXIS2_PLACEMENT_3D('',#1933,#1538,#1539);
#1342=AXIS2_PLACEMENT_3D('',#1939,#1543,#1544);
#1343=AXIS2_PLACEMENT_3D('',#1943,#1547,#1548);
#1344=AXIS2_PLACEMENT_3D('',#1945,#1550,#1551);
#1345=AXIS2_PLACEMENT_3D('',#1949,#1554,#1555);
#1346=AXIS2_PLACEMENT_3D('',#1953,#1558,#1559);
#1347=AXIS2_PLACEMENT_3D('',#1957,#1562,#1563);
#1348=AXIS2_PLACEMENT_3D('',#1963,#1567,#1568);
#1349=AXIS2_PLACEMENT_3D('',#1967,#1571,#1572);
#1350=AXIS2_PLACEMENT_3D('',#1971,#1575,#1576);
#1351=AXIS2_PLACEMENT_3D('',#1973,#1578,#1579);
#1352=AXIS2_PLACEMENT_3D('',#1975,#1580,#1581);
#1353=AXIS2_PLACEMENT_3D('',#1976,#1582,#1583);
#1354=AXIS2_PLACEMENT_3D('',#1978,#1584,#1585);
#1355=AXIS2_PLACEMENT_3D('',#1979,#1586,#1587);
#1356=AXIS2_PLACEMENT_3D('',#1981,#1588,#1589);
#1357=AXIS2_PLACEMENT_3D('',#1982,#1590,#1591);
#1358=AXIS2_PLACEMENT_3D('',#1984,#1592,#1593);
#1359=AXIS2_PLACEMENT_3D('',#1985,#1594,#1595);
#1360=AXIS2_PLACEMENT_3D('',#1987,#1596,#1597);
#1361=AXIS2_PLACEMENT_3D('',#1989,#1599,#1600);
#1362=AXIS2_PLACEMENT_3D('',#1995,#1604,#1605);
#1363=AXIS2_PLACEMENT_3D('',#1997,#1606,#1607);
#1364=AXIS2_PLACEMENT_3D('',#1999,#1609,#1610);
#1365=AXIS2_PLACEMENT_3D('',#2003,#1613,#1614);
#1366=AXIS2_PLACEMENT_3D('',#2007,#1617,#1618);
#1367=AXIS2_PLACEMENT_3D('',#2011,#1621,#1622);
#1368=AXIS2_PLACEMENT_3D('',#2013,#1623,#1624);
#1369=AXIS2_PLACEMENT_3D('',#2015,#1626,#1627);
#1370=AXIS2_PLACEMENT_3D('',#2019,#1630,#1631);
#1371=AXIS2_PLACEMENT_3D('',#2021,#1633,#1634);
#1372=AXIS2_PLACEMENT_3D('',#2022,#1635,#1636);
#1373=AXIS2_PLACEMENT_3D('',#2024,#1637,#1638);
#1374=AXIS2_PLACEMENT_3D('',#2026,#1640,#1641);
#1375=AXIS2_PLACEMENT_3D('',#2032,#1645,#1646);
#1376=AXIS2_PLACEMENT_3D('',#2034,#1647,#1648);
#1377=AXIS2_PLACEMENT_3D('',#2036,#1650,#1651);
#1378=AXIS2_PLACEMENT_3D('',#2040,#1654,#1655);
#1379=AXIS2_PLACEMENT_3D('',#2044,#1658,#1659);
#1380=AXIS2_PLACEMENT_3D('',#2048,#1662,#1663);
#1381=AXIS2_PLACEMENT_3D('',#2050,#1664,#1665);
#1382=AXIS2_PLACEMENT_3D('',#2052,#1667,#1668);
#1383=AXIS2_PLACEMENT_3D('',#2056,#1671,#1672);
#1384=AXIS2_PLACEMENT_3D('',#2058,#1674,#1675);
#1385=AXIS2_PLACEMENT_3D('',#2059,#1676,#1677);
#1386=AXIS2_PLACEMENT_3D('',#2061,#1678,#1679);
#1387=AXIS2_PLACEMENT_3D('',#2063,#1681,#1682);
#1388=AXIS2_PLACEMENT_3D('',#2069,#1686,#1687);
#1389=AXIS2_PLACEMENT_3D('',#2073,#1690,#1691);
#1390=AXIS2_PLACEMENT_3D('',#2075,#1692,#1693);
#1391=AXIS2_PLACEMENT_3D('',#2077,#1695,#1696);
#1392=AXIS2_PLACEMENT_3D('',#2081,#1699,#1700);
#1393=AXIS2_PLACEMENT_3D('',#2085,#1703,#1704);
#1394=AXIS2_PLACEMENT_3D('',#2089,#1707,#1708);
#1395=AXIS2_PLACEMENT_3D('',#2091,#1709,#1710);
#1396=AXIS2_PLACEMENT_3D('',#2093,#1712,#1713);
#1397=AXIS2_PLACEMENT_3D('',#2095,#1715,#1716);
#1398=AXIS2_PLACEMENT_3D('',#2096,#1717,#1718);
#1399=AXIS2_PLACEMENT_3D('',#2098,#1719,#1720);
#1400=AXIS2_PLACEMENT_3D('',#2100,#1722,#1723);
#1401=AXIS2_PLACEMENT_3D('',#2106,#1727,#1728);
#1402=AXIS2_PLACEMENT_3D('',#2110,#1731,#1732);
#1403=AXIS2_PLACEMENT_3D('',#2112,#1733,#1734);
#1404=AXIS2_PLACEMENT_3D('',#2114,#1736,#1737);
#1405=AXIS2_PLACEMENT_3D('',#2118,#1740,#1741);
#1406=AXIS2_PLACEMENT_3D('',#2122,#1744,#1745);
#1407=AXIS2_PLACEMENT_3D('',#2126,#1748,#1749);
#1408=AXIS2_PLACEMENT_3D('',#2128,#1750,#1751);
#1409=AXIS2_PLACEMENT_3D('',#2130,#1753,#1754);
#1410=AXIS2_PLACEMENT_3D('',#2132,#1756,#1757);
#1411=AXIS2_PLACEMENT_3D('',#2133,#1758,#1759);
#1412=AXIS2_PLACEMENT_3D('',#2135,#1761,#1762);
#1413=AXIS2_PLACEMENT_3D('',#2137,#1764,#1765);
#1414=AXIS2_PLACEMENT_3D('',#2139,#1767,#1768);
#1415=DIRECTION('axis',(0.,0.,1.));
#1416=DIRECTION('refdir',(1.,0.,0.));
#1417=DIRECTION('center_axis',(0.,0.,1.));
#1418=DIRECTION('ref_axis',(0.707106781186574,-0.707106781186521,0.));
#1419=DIRECTION('center_axis',(0.,0.,-1.));
#1420=DIRECTION('ref_axis',(0.707106781186574,-0.707106781186521,0.));
#1421=DIRECTION('',(0.,0.,1.));
#1422=DIRECTION('center_axis',(0.,0.,1.));
#1423=DIRECTION('ref_axis',(0.707106781186574,-0.707106781186521,0.));
#1424=DIRECTION('',(0.,0.,-1.));
#1425=DIRECTION('center_axis',(-3.0893162424349E-16,1.,0.));
#1426=DIRECTION('ref_axis',(-1.,-3.0893162424349E-16,0.));
#1427=DIRECTION('',(1.,3.0893162424349E-16,0.));
#1428=DIRECTION('',(0.,0.,-1.));
#1429=DIRECTION('',(-1.,-3.0893162424349E-16,0.));
#1430=DIRECTION('center_axis',(0.,0.,1.));
#1431=DIRECTION('ref_axis',(-0.707106781186547,-0.707106781186547,0.));
#1432=DIRECTION('center_axis',(0.,0.,-1.));
#1433=DIRECTION('ref_axis',(-0.707106781186547,-0.707106781186547,0.));
#1434=DIRECTION('',(0.,0.,1.));
#1435=DIRECTION('center_axis',(0.,0.,1.));
#1436=DIRECTION('ref_axis',(-0.707106781186547,-0.707106781186547,0.));
#1437=DIRECTION('center_axis',(1.,2.21429522916929E-16,0.));
#1438=DIRECTION('ref_axis',(-2.21429522916929E-16,1.,0.));
#1439=DIRECTION('',(2.21429522916929E-16,-1.,0.));
#1440=DIRECTION('',(0.,0.,-1.));
#1441=DIRECTION('',(-2.21429522916929E-16,1.,0.));
#1442=DIRECTION('center_axis',(0.,0.,1.));
#1443=DIRECTION('ref_axis',(0.707106781186521,0.707106781186574,0.));
#1444=DIRECTION('center_axis',(0.,0.,-1.));
#1445=DIRECTION('ref_axis',(0.707106781186521,0.707106781186574,0.));
#1446=DIRECTION('',(0.,0.,1.));
#1447=DIRECTION('center_axis',(0.,0.,1.));
#1448=DIRECTION('ref_axis',(0.707106781186521,0.707106781186574,0.));
#1449=DIRECTION('',(0.,0.,-1.));
#1450=DIRECTION('center_axis',(-1.,-7.24320572741598E-14,0.));
#1451=DIRECTION('ref_axis',(7.24320572741598E-14,-1.,0.));
#1452=DIRECTION('',(7.24320572741598E-14,-1.,0.));
#1453=DIRECTION('',(0.,0.,-1.));
#1454=DIRECTION('',(7.24320572741598E-14,-1.,0.));
#1455=DIRECTION('center_axis',(0.,0.,1.));
#1456=DIRECTION('ref_axis',(-0.707106781186547,0.707106781186547,0.));
#1457=DIRECTION('center_axis',(0.,0.,-1.));
#1458=DIRECTION('ref_axis',(-0.707106781186547,0.707106781186547,0.));
#1459=DIRECTION('',(0.,0.,1.));
#1460=DIRECTION('center_axis',(0.,0.,1.));
#1461=DIRECTION('ref_axis',(-0.707106781186547,0.707106781186547,0.));
#1462=DIRECTION('',(0.,0.,-1.));
#1463=DIRECTION('center_axis',(2.31698718182617E-16,-1.,0.));
#1464=DIRECTION('ref_axis',(1.,2.31698718182617E-16,0.));
#1465=DIRECTION('',(1.,2.31698718182617E-16,0.));
#1466=DIRECTION('',(1.,2.31698718182617E-16,0.));
#1467=DIRECTION('center_axis',(0.707106781186497,0.707106781186598,0.));
#1468=DIRECTION('ref_axis',(0.,0.,-1.));
#1469=DIRECTION('',(0.707106781186598,-0.707106781186497,0.));
#1470=DIRECTION('',(0.,0.,-1.));
#1471=DIRECTION('',(-0.707106781186598,0.707106781186497,0.));
#1472=DIRECTION('',(0.,0.,1.));
#1473=DIRECTION('center_axis',(0.,0.,1.));
#1474=DIRECTION('ref_axis',(1.,0.,0.));
#1475=DIRECTION('',(-1.,-7.18902062063161E-14,0.));
#1476=DIRECTION('',(0.707106781186497,0.707106781186599,0.));
#1477=DIRECTION('',(7.24320572741598E-14,-1.,0.));
#1478=DIRECTION('',(0.707106781186548,-0.707106781186548,0.));
#1479=DIRECTION('',(-1.,-8.35932630306001E-16,0.));
#1480=DIRECTION('',(0.707106781186548,0.707106781186548,0.));
#1481=DIRECTION('',(0.,-1.,0.));
#1482=DIRECTION('',(-0.707106781186548,0.707106781186548,0.));
#1483=DIRECTION('',(1.,0.,0.));
#1484=DIRECTION('',(-0.707106781186548,-0.707106781186547,0.));
#1485=DIRECTION('',(-2.21429522916929E-16,1.,0.));
#1486=DIRECTION('',(-0.707106781186599,0.707106781186497,0.));
#1487=DIRECTION('',(1.,7.2726138836622E-14,0.));
#1488=DIRECTION('',(-0.707106781186496,-0.707106781186599,0.));
#1489=DIRECTION('',(-7.26288835167526E-14,1.,0.));
#1490=DIRECTION('',(1.,5.78694853230083E-13,0.));
#1491=DIRECTION('center_axis',(0.,0.,-1.));
#1492=DIRECTION('ref_axis',(0.968245854827302,0.249999929219484,0.));
#1493=DIRECTION('',(1.,0.,0.));
#1494=DIRECTION('',(0.,-1.,0.));
#1495=DIRECTION('',(-1.,0.,0.));
#1496=DIRECTION('center_axis',(0.,0.,-1.));
#1497=DIRECTION('ref_axis',(-0.96824581731439,-0.250000074506367,0.));
#1498=DIRECTION('',(-1.,-5.78694759559955E-13,0.));
#1499=DIRECTION('',(-5.79092329644482E-13,1.,0.));
#1500=DIRECTION('',(0.,-1.,0.));
#1501=DIRECTION('',(-1.,0.,0.));
#1502=DIRECTION('center_axis',(0.,0.,-1.));
#1503=DIRECTION('ref_axis',(-0.968245854827447,-0.249999929218923,0.));
#1504=DIRECTION('',(-1.,5.78694853230083E-13,0.));
#1505=DIRECTION('',(5.79092329644482E-13,1.,0.));
#1506=DIRECTION('',(1.,-5.78694759559955E-13,0.));
#1507=DIRECTION('center_axis',(0.,0.,-1.));
#1508=DIRECTION('ref_axis',(0.968245817314535,0.250000074505806,0.));
#1509=DIRECTION('',(1.,0.,0.));
#1510=DIRECTION('',(0.,1.,0.));
#1511=DIRECTION('',(1.,0.,0.));
#1512=DIRECTION('center_axis',(0.,0.,-1.));
#1513=DIRECTION('ref_axis',(0.96824581731439,0.250000074506367,0.));
#1514=DIRECTION('',(1.,5.78694759559961E-13,0.));
#1515=DIRECTION('',(5.82645038982238E-13,-1.,0.));
#1516=DIRECTION('',(-1.,-5.78694853230085E-13,0.));
#1517=DIRECTION('center_axis',(0.,0.,-1.));
#1518=DIRECTION('ref_axis',(-0.968245854827302,-0.249999929219484,0.));
#1519=DIRECTION('',(-1.,-7.66483249311371E-15,0.));
#1520=DIRECTION('',(1.,0.,0.));
#1521=DIRECTION('center_axis',(0.,0.,-1.));
#1522=DIRECTION('ref_axis',(0.968245854827447,0.249999929218923,0.));
#1523=DIRECTION('',(1.,-5.78694853230085E-13,0.));
#1524=DIRECTION('',(-5.96855898038484E-13,-1.,0.));
#1525=DIRECTION('',(-1.,5.78694759559961E-13,0.));
#1526=DIRECTION('center_axis',(0.,0.,-1.));
#1527=DIRECTION('ref_axis',(-0.968245817314535,-0.250000074505806,0.));
#1528=DIRECTION('',(-1.,0.,0.));
#1529=DIRECTION('',(0.,1.,0.));
#1530=DIRECTION('center_axis',(-7.18902062063161E-14,1.,0.));
#1531=DIRECTION('ref_axis',(-1.,-7.18902062063161E-14,0.));
#1532=DIRECTION('',(-1.,-7.18902062063161E-14,0.));
#1533=DIRECTION('',(0.,0.,-1.));
#1534=DIRECTION('center_axis',(-0.707106781186599,0.707106781186497,0.));
#1535=DIRECTION('ref_axis',(0.,0.,1.));
#1536=DIRECTION('',(-0.707106781186497,-0.707106781186599,0.));
#1537=DIRECTION('',(0.,0.,1.));
#1538=DIRECTION('center_axis',(0.707106781186599,-0.707106781186496,0.));
#1539=DIRECTION('ref_axis',(0.,0.,-1.));
#1540=DIRECTION('',(0.,0.,-1.));
#1541=DIRECTION('',(0.707106781186496,0.707106781186599,0.));
#1542=DIRECTION('',(0.,0.,1.));
#1543=DIRECTION('center_axis',(7.2726138836622E-14,-1.,0.));
#1544=DIRECTION('ref_axis',(1.,7.2726138836622E-14,0.));
#1545=DIRECTION('',(0.,0.,1.));
#1546=DIRECTION('',(1.,7.2726138836622E-14,0.));
#1547=DIRECTION('center_axis',(-0.707106781186497,-0.707106781186599,0.));
#1548=DIRECTION('ref_axis',(0.,0.,1.));
#1549=DIRECTION('',(0.707106781186599,-0.707106781186497,0.));
#1550=DIRECTION('center_axis',(0.707106781186548,0.707106781186548,0.));
#1551=DIRECTION('ref_axis',(0.,0.,-1.));
#1552=DIRECTION('',(-0.707106781186548,0.707106781186548,0.));
#1553=DIRECTION('',(0.,0.,1.));
#1554=DIRECTION('center_axis',(-8.35932630306001E-16,1.,0.));
#1555=DIRECTION('ref_axis',(-1.,-8.35932630306001E-16,0.));
#1556=DIRECTION('',(1.,8.35932630306001E-16,0.));
#1557=DIRECTION('',(0.,0.,-1.));
#1558=DIRECTION('center_axis',(-0.707106781186548,0.707106781186548,0.));
#1559=DIRECTION('ref_axis',(0.,0.,1.));
#1560=DIRECTION('',(-0.707106781186548,-0.707106781186548,0.));
#1561=DIRECTION('',(0.,0.,1.));
#1562=DIRECTION('center_axis',(0.707106781186547,-0.707106781186548,0.));
#1563=DIRECTION('ref_axis',(0.,0.,-1.));
#1564=DIRECTION('',(0.,0.,-1.));
#1565=DIRECTION('',(0.707106781186548,0.707106781186547,0.));
#1566=DIRECTION('',(0.,0.,1.));
#1567=DIRECTION('center_axis',(0.,-1.,0.));
#1568=DIRECTION('ref_axis',(1.,0.,0.));
#1569=DIRECTION('',(0.,0.,1.));
#1570=DIRECTION('',(-1.,0.,0.));
#1571=DIRECTION('center_axis',(-0.707106781186548,-0.707106781186548,0.));
#1572=DIRECTION('ref_axis',(0.,0.,1.));
#1573=DIRECTION('',(0.,0.,-1.));
#1574=DIRECTION('',(0.707106781186548,-0.707106781186548,0.));
#1575=DIRECTION('center_axis',(-1.,0.,0.));
#1576=DIRECTION('ref_axis',(0.,-1.,0.));
#1577=DIRECTION('',(0.,1.,0.));
#1578=DIRECTION('center_axis',(0.,0.,1.));
#1579=DIRECTION('ref_axis',(1.,0.,0.));
#1580=DIRECTION('center_axis',(0.,0.,-1.));
#1581=DIRECTION('ref_axis',(-1.,0.,0.));
#1582=DIRECTION('center_axis',(0.,0.,1.));
#1583=DIRECTION('ref_axis',(1.,0.,0.));
#1584=DIRECTION('center_axis',(0.,0.,-1.));
#1585=DIRECTION('ref_axis',(-1.,0.,0.));
#1586=DIRECTION('center_axis',(0.,0.,1.));
#1587=DIRECTION('ref_axis',(1.,0.,0.));
#1588=DIRECTION('center_axis',(0.,0.,-1.));
#1589=DIRECTION('ref_axis',(-1.,0.,0.));
#1590=DIRECTION('center_axis',(0.,0.,1.));
#1591=DIRECTION('ref_axis',(1.,0.,0.));
#1592=DIRECTION('center_axis',(0.,0.,-1.));
#1593=DIRECTION('ref_axis',(-1.,0.,0.));
#1594=DIRECTION('center_axis',(0.,0.,1.));
#1595=DIRECTION('ref_axis',(-1.,0.,0.));
#1596=DIRECTION('center_axis',(0.,0.,-1.));
#1597=DIRECTION('ref_axis',(-1.,0.,0.));
#1598=DIRECTION('',(0.,0.,-1.));
#1599=DIRECTION('center_axis',(0.,1.,0.));
#1600=DIRECTION('ref_axis',(-1.,0.,0.));
#1601=DIRECTION('',(0.,0.,1.));
#1602=DIRECTION('',(-1.,0.,0.));
#1603=DIRECTION('',(0.,0.,1.));
#1604=DIRECTION('center_axis',(0.,0.,1.));
#1605=DIRECTION('ref_axis',(0.968245854827447,0.249999929218923,0.));
#1606=DIRECTION('center_axis',(0.,0.,1.));
#1607=DIRECTION('ref_axis',(0.968245854827447,0.249999929218923,0.));
#1608=DIRECTION('',(0.,0.,1.));
#1609=DIRECTION('center_axis',(5.78694853230085E-13,1.,0.));
#1610=DIRECTION('ref_axis',(-1.,5.78694853230085E-13,0.));
#1611=DIRECTION('',(-1.,5.78694853230085E-13,0.));
#1612=DIRECTION('',(0.,0.,1.));
#1613=DIRECTION('center_axis',(1.,-5.96855898038484E-13,0.));
#1614=DIRECTION('ref_axis',(5.96855898038484E-13,1.,0.));
#1615=DIRECTION('',(5.96855898038484E-13,1.,0.));
#1616=DIRECTION('',(0.,0.,1.));
#1617=DIRECTION('center_axis',(-5.78694759559961E-13,-1.,0.));
#1618=DIRECTION('ref_axis',(1.,-5.78694759559961E-13,0.));
#1619=DIRECTION('',(1.,-5.78694759559961E-13,0.));
#1620=DIRECTION('',(0.,0.,1.));
#1621=DIRECTION('center_axis',(0.,0.,1.));
#1622=DIRECTION('ref_axis',(-0.968245817314535,-0.250000074505806,0.));
#1623=DIRECTION('center_axis',(0.,0.,1.));
#1624=DIRECTION('ref_axis',(-0.968245817314535,-0.250000074505806,0.));
#1625=DIRECTION('',(0.,0.,1.));
#1626=DIRECTION('center_axis',(0.,-1.,0.));
#1627=DIRECTION('ref_axis',(1.,0.,0.));
#1628=DIRECTION('',(1.,0.,0.));
#1629=DIRECTION('',(0.,0.,1.));
#1630=DIRECTION('center_axis',(-1.,0.,0.));
#1631=DIRECTION('ref_axis',(0.,-1.,0.));
#1632=DIRECTION('',(0.,-1.,0.));
#1633=DIRECTION('center_axis',(0.,0.,1.));
#1634=DIRECTION('ref_axis',(-1.,0.,0.));
#1635=DIRECTION('center_axis',(0.,0.,1.));
#1636=DIRECTION('ref_axis',(-1.,0.,0.));
#1637=DIRECTION('center_axis',(0.,0.,-1.));
#1638=DIRECTION('ref_axis',(-1.,0.,0.));
#1639=DIRECTION('',(0.,0.,-1.));
#1640=DIRECTION('center_axis',(-5.78694853230083E-13,1.,0.));
#1641=DIRECTION('ref_axis',(-1.,-5.78694853230083E-13,0.));
#1642=DIRECTION('',(0.,0.,1.));
#1643=DIRECTION('',(-1.,-5.78694853230083E-13,0.));
#1644=DIRECTION('',(0.,0.,1.));
#1645=DIRECTION('center_axis',(0.,0.,1.));
#1646=DIRECTION('ref_axis',(0.968245854827302,0.249999929219484,0.));
#1647=DIRECTION('center_axis',(0.,0.,1.));
#1648=DIRECTION('ref_axis',(0.968245854827302,0.249999929219484,0.));
#1649=DIRECTION('',(0.,0.,1.));
#1650=DIRECTION('center_axis',(0.,1.,0.));
#1651=DIRECTION('ref_axis',(-1.,0.,0.));
#1652=DIRECTION('',(-1.,0.,0.));
#1653=DIRECTION('',(0.,0.,1.));
#1654=DIRECTION('center_axis',(1.,0.,0.));
#1655=DIRECTION('ref_axis',(0.,1.,0.));
#1656=DIRECTION('',(0.,1.,0.));
#1657=DIRECTION('',(0.,0.,1.));
#1658=DIRECTION('center_axis',(0.,-1.,0.));
#1659=DIRECTION('ref_axis',(1.,0.,0.));
#1660=DIRECTION('',(1.,0.,0.));
#1661=DIRECTION('',(0.,0.,1.));
#1662=DIRECTION('center_axis',(0.,0.,1.));
#1663=DIRECTION('ref_axis',(-0.96824581731439,-0.250000074506367,0.));
#1664=DIRECTION('center_axis',(0.,0.,1.));
#1665=DIRECTION('ref_axis',(-0.96824581731439,-0.250000074506367,0.));
#1666=DIRECTION('',(0.,0.,1.));
#1667=DIRECTION('center_axis',(5.78694759559955E-13,-1.,0.));
#1668=DIRECTION('ref_axis',(1.,5.78694759559955E-13,0.));
#1669=DIRECTION('',(1.,5.78694759559955E-13,0.));
#1670=DIRECTION('',(0.,0.,1.));
#1671=DIRECTION('center_axis',(-1.,-5.79092329644482E-13,0.));
#1672=DIRECTION('ref_axis',(5.79092329644482E-13,-1.,0.));
#1673=DIRECTION('',(5.79092329644482E-13,-1.,0.));
#1674=DIRECTION('center_axis',(0.,0.,1.));
#1675=DIRECTION('ref_axis',(-1.,0.,0.));
#1676=DIRECTION('center_axis',(0.,0.,1.));
#1677=DIRECTION('ref_axis',(-1.,0.,0.));
#1678=DIRECTION('center_axis',(0.,0.,-1.));
#1679=DIRECTION('ref_axis',(-1.,0.,0.));
#1680=DIRECTION('',(0.,0.,-1.));
#1681=DIRECTION('center_axis',(-1.,0.,0.));
#1682=DIRECTION('ref_axis',(0.,-1.,0.));
#1683=DIRECTION('',(0.,0.,1.));
#1684=DIRECTION('',(0.,-1.,0.));
#1685=DIRECTION('',(0.,0.,1.));
#1686=DIRECTION('center_axis',(0.,1.,0.));
#1687=DIRECTION('ref_axis',(-1.,0.,0.));
#1688=DIRECTION('',(-1.,0.,0.));
#1689=DIRECTION('',(0.,0.,1.));
#1690=DIRECTION('center_axis',(0.,0.,1.));
#1691=DIRECTION('ref_axis',(0.96824581731439,0.250000074506367,0.));
#1692=DIRECTION('center_axis',(0.,0.,1.));
#1693=DIRECTION('ref_axis',(0.96824581731439,0.250000074506367,0.));
#1694=DIRECTION('',(0.,0.,1.));
#1695=DIRECTION('center_axis',(-5.78694759559961E-13,1.,0.));
#1696=DIRECTION('ref_axis',(-1.,-5.78694759559961E-13,0.));
#1697=DIRECTION('',(-1.,-5.78694759559961E-13,0.));
#1698=DIRECTION('',(0.,0.,1.));
#1699=DIRECTION('center_axis',(1.,5.82645038982238E-13,0.));
#1700=DIRECTION('ref_axis',(-5.82645038982238E-13,1.,0.));
#1701=DIRECTION('',(-5.82645038982238E-13,1.,0.));
#1702=DIRECTION('',(0.,0.,1.));
#1703=DIRECTION('center_axis',(5.78694853230085E-13,-1.,0.));
#1704=DIRECTION('ref_axis',(1.,5.78694853230085E-13,0.));
#1705=DIRECTION('',(1.,5.78694853230085E-13,0.));
#1706=DIRECTION('',(0.,0.,1.));
#1707=DIRECTION('center_axis',(0.,0.,1.));
#1708=DIRECTION('ref_axis',(-0.968245854827302,-0.249999929219484,0.));
#1709=DIRECTION('center_axis',(0.,0.,1.));
#1710=DIRECTION('ref_axis',(-0.968245854827302,-0.249999929219484,0.));
#1711=DIRECTION('',(0.,0.,1.));
#1712=DIRECTION('center_axis',(7.66483249311371E-15,-1.,0.));
#1713=DIRECTION('ref_axis',(1.,7.66483249311371E-15,0.));
#1714=DIRECTION('',(1.,7.66483249311371E-15,0.));
#1715=DIRECTION('center_axis',(0.,0.,1.));
#1716=DIRECTION('ref_axis',(-1.,0.,0.));
#1717=DIRECTION('center_axis',(0.,0.,1.));
#1718=DIRECTION('ref_axis',(-1.,0.,0.));
#1719=DIRECTION('center_axis',(0.,0.,-1.));
#1720=DIRECTION('ref_axis',(-1.,0.,0.));
#1721=DIRECTION('',(0.,0.,-1.));
#1722=DIRECTION('center_axis',(1.,0.,0.));
#1723=DIRECTION('ref_axis',(0.,1.,0.));
#1724=DIRECTION('',(0.,0.,1.));
#1725=DIRECTION('',(0.,1.,0.));
#1726=DIRECTION('',(0.,0.,1.));
#1727=DIRECTION('center_axis',(0.,-1.,0.));
#1728=DIRECTION('ref_axis',(1.,0.,0.));
#1729=DIRECTION('',(1.,0.,0.));
#1730=DIRECTION('',(0.,0.,1.));
#1731=DIRECTION('center_axis',(0.,0.,1.));
#1732=DIRECTION('ref_axis',(-0.968245854827447,-0.249999929218923,0.));
#1733=DIRECTION('center_axis',(0.,0.,1.));
#1734=DIRECTION('ref_axis',(-0.968245854827447,-0.249999929218923,0.));
#1735=DIRECTION('',(0.,0.,1.));
#1736=DIRECTION('center_axis',(-5.78694853230083E-13,-1.,0.));
#1737=DIRECTION('ref_axis',(1.,-5.78694853230083E-13,0.));
#1738=DIRECTION('',(1.,-5.78694853230083E-13,0.));
#1739=DIRECTION('',(0.,0.,1.));
#1740=DIRECTION('center_axis',(-1.,5.79092329644482E-13,0.));
#1741=DIRECTION('ref_axis',(-5.79092329644482E-13,-1.,0.));
#1742=DIRECTION('',(-5.79092329644482E-13,-1.,0.));
#1743=DIRECTION('',(0.,0.,1.));
#1744=DIRECTION('center_axis',(5.78694759559955E-13,1.,0.));
#1745=DIRECTION('ref_axis',(-1.,5.78694759559955E-13,0.));
#1746=DIRECTION('',(-1.,5.78694759559955E-13,0.));
#1747=DIRECTION('',(0.,0.,1.));
#1748=DIRECTION('center_axis',(0.,0.,1.));
#1749=DIRECTION('ref_axis',(0.968245817314535,0.250000074505806,0.));
#1750=DIRECTION('center_axis',(0.,0.,1.));
#1751=DIRECTION('ref_axis',(0.968245817314535,0.250000074505806,0.));
#1752=DIRECTION('',(0.,0.,1.));
#1753=DIRECTION('center_axis',(0.,1.,0.));
#1754=DIRECTION('ref_axis',(-1.,0.,0.));
#1755=DIRECTION('',(-1.,0.,0.));
#1756=DIRECTION('center_axis',(0.,0.,1.));
#1757=DIRECTION('ref_axis',(-1.,0.,0.));
#1758=DIRECTION('center_axis',(1.,2.21429522916929E-16,0.));
#1759=DIRECTION('ref_axis',(-2.21429522916929E-16,1.,0.));
#1760=DIRECTION('',(2.21429522916929E-16,-1.,0.));
#1761=DIRECTION('center_axis',(-1.,-7.24320572741598E-14,0.));
#1762=DIRECTION('ref_axis',(7.24320572741598E-14,-1.,0.));
#1763=DIRECTION('',(7.24320572741598E-14,-1.,0.));
#1764=DIRECTION('center_axis',(1.,7.26288835167526E-14,0.));
#1765=DIRECTION('ref_axis',(-7.26288835167526E-14,1.,0.));
#1766=DIRECTION('',(-7.26288835167526E-14,1.,0.));
#1767=DIRECTION('center_axis',(0.,0.,1.));
#1768=DIRECTION('ref_axis',(1.,0.,0.));
#1769=CARTESIAN_POINT('',(0.,0.,0.));
#1770=CARTESIAN_POINT('Origin',(131.250000000003,54.9999920210165,0.));
#1771=CARTESIAN_POINT('',(136.250000000003,54.9999920210169,0.));
#1772=CARTESIAN_POINT('',(131.250000000003,49.9999920210165,0.));
#1773=CARTESIAN_POINT('Origin',(131.250000000003,54.9999920210165,0.));
#1774=CARTESIAN_POINT('',(131.250000000003,49.9999920210165,5.));
#1775=CARTESIAN_POINT('',(131.250000000003,49.9999920210165,0.));
#1776=CARTESIAN_POINT('',(136.250000000003,54.9999920210169,5.));
#1777=CARTESIAN_POINT('Origin',(131.250000000003,54.9999920210165,5.));
#1778=CARTESIAN_POINT('',(136.250000000003,54.9999920210169,0.));
#1779=CARTESIAN_POINT('Origin',(136.250000000003,49.9999920210165,0.));
#1780=CARTESIAN_POINT('',(26.2499999999999,49.9999920210165,0.));
#1781=CARTESIAN_POINT('',(21.25,49.9999920210165,0.));
#1782=CARTESIAN_POINT('',(26.2499999999999,49.9999920210165,5.));
#1783=CARTESIAN_POINT('',(26.2499999999999,49.9999920210165,0.));
#1784=CARTESIAN_POINT('',(21.25,49.9999920210165,5.));
#1785=CARTESIAN_POINT('Origin',(26.2499999999999,54.9999920210165,0.));
#1786=CARTESIAN_POINT('',(21.2499999999999,54.9999920210165,0.));
#1787=CARTESIAN_POINT('Origin',(26.2499999999999,54.9999920210165,0.));
#1788=CARTESIAN_POINT('',(21.2499999999999,54.9999920210165,5.));
#1789=CARTESIAN_POINT('',(21.2499999999999,54.9999920210165,0.));
#1790=CARTESIAN_POINT('Origin',(26.2499999999999,54.9999920210165,5.));
#1791=CARTESIAN_POINT('Origin',(21.2499999999999,49.9999920210165,0.));
#1792=CARTESIAN_POINT('',(21.2499999999999,82.7499999999998,0.));
#1793=CARTESIAN_POINT('',(21.2499999999999,90.2499999999998,0.));
#1794=CARTESIAN_POINT('',(21.2499999999999,82.7499999999998,5.));
#1795=CARTESIAN_POINT('',(21.2499999999999,82.7499999999998,0.));
#1796=CARTESIAN_POINT('',(21.2499999999999,90.2499999999998,5.));
#1797=CARTESIAN_POINT('Origin',(131.25000000001,-54.9999920210168,0.));
#1798=CARTESIAN_POINT('',(131.25000000001,-49.9999920210168,0.));
#1799=CARTESIAN_POINT('',(136.25000000001,-54.9999920210164,0.));
#1800=CARTESIAN_POINT('Origin',(131.25000000001,-54.9999920210168,0.));
#1801=CARTESIAN_POINT('',(136.25000000001,-54.9999920210164,5.));
#1802=CARTESIAN_POINT('',(136.25000000001,-54.9999920210164,0.));
#1803=CARTESIAN_POINT('',(131.25000000001,-49.9999920210168,5.));
#1804=CARTESIAN_POINT('Origin',(131.25000000001,-54.9999920210168,5.));
#1805=CARTESIAN_POINT('',(131.25000000001,-49.9999920210168,0.));
#1806=CARTESIAN_POINT('Origin',(136.25000000001,-49.9999920210168,0.));
#1807=CARTESIAN_POINT('',(136.250000000012,-82.7499999999961,0.));
#1808=CARTESIAN_POINT('',(136.25,90.250000000004,0.));
#1809=CARTESIAN_POINT('',(136.250000000012,-82.7499999999961,5.));
#1810=CARTESIAN_POINT('',(136.250000000012,-82.7499999999961,0.));
#1811=CARTESIAN_POINT('',(136.25,90.250000000004,5.));
#1812=CARTESIAN_POINT('Origin',(26.25,-54.9999920210168,0.));
#1813=CARTESIAN_POINT('',(21.25,-54.9999920210168,0.));
#1814=CARTESIAN_POINT('',(26.25,-49.9999920210168,0.));
#1815=CARTESIAN_POINT('Origin',(26.25,-54.9999920210168,0.));
#1816=CARTESIAN_POINT('',(26.25,-49.9999920210168,5.));
#1817=CARTESIAN_POINT('',(26.25,-49.9999920210168,0.));
#1818=CARTESIAN_POINT('',(21.25,-54.9999920210168,5.));
#1819=CARTESIAN_POINT('Origin',(26.25,-54.9999920210168,5.));
#1820=CARTESIAN_POINT('',(21.25,-54.9999920210168,0.));
#1821=CARTESIAN_POINT('Origin',(21.25,-49.9999920210168,0.));
#1822=CARTESIAN_POINT('',(21.25,-49.9999920210168,5.));
#1823=CARTESIAN_POINT('',(21.25,-49.9999920210168,0.));
#1824=CARTESIAN_POINT('Origin',(175.,86.5000000000068,0.));
#1825=CARTESIAN_POINT('',(171.25,90.2500000000065,5.));
#1826=CARTESIAN_POINT('',(178.75,82.750000000007,5.));
#1827=CARTESIAN_POINT('',(172.562499999999,88.9375000000074,5.));
#1828=CARTESIAN_POINT('',(178.75,82.750000000007,0.));
#1829=CARTESIAN_POINT('',(178.75,82.750000000007,0.));
#1830=CARTESIAN_POINT('',(171.25,90.2500000000065,0.));
#1831=CARTESIAN_POINT('',(172.562499999999,88.9375000000074,0.));
#1832=CARTESIAN_POINT('',(171.25,90.2500000000065,0.));
#1833=CARTESIAN_POINT('Origin',(78.7500000000065,3.39284156325448E-12,5.));
#1834=CARTESIAN_POINT('',(143.75,90.2500000000045,5.));
#1835=CARTESIAN_POINT('',(178.75,90.250000000007,5.));
#1836=CARTESIAN_POINT('',(136.25,82.750000000004,5.));
#1837=CARTESIAN_POINT('',(103.062500000004,49.5625000000025,5.));
#1838=CARTESIAN_POINT('',(136.25,90.250000000004,5.));
#1839=CARTESIAN_POINT('',(13.7499999999999,90.2499999999998,5.));
#1840=CARTESIAN_POINT('',(54.4375000000007,49.5624999999991,5.));
#1841=CARTESIAN_POINT('',(-13.75,90.2499999999998,5.));
#1842=CARTESIAN_POINT('',(-21.25,90.2499999999998,5.));
#1843=CARTESIAN_POINT('',(-21.25,82.7499999999998,5.));
#1844=CARTESIAN_POINT('',(-15.0624999999975,88.9375000000023,5.));
#1845=CARTESIAN_POINT('',(-21.25,-82.7500000000002,5.));
#1846=CARTESIAN_POINT('',(-21.25,-90.2500000000002,5.));
#1847=CARTESIAN_POINT('',(-13.75,-90.2500000000002,5.));
#1848=CARTESIAN_POINT('',(-15.0624999999993,-88.937500000001,5.));
#1849=CARTESIAN_POINT('',(13.75,-90.2500000000002,5.));
#1850=CARTESIAN_POINT('',(21.25,-90.2500000000002,5.));
#1851=CARTESIAN_POINT('',(21.25,-82.7500000000002,5.));
#1852=CARTESIAN_POINT('',(54.4375000000025,-49.5624999999977,5.));
#1853=CARTESIAN_POINT('',(21.2499999999999,90.2499999999998,5.));
#1854=CARTESIAN_POINT('',(143.750000000013,-90.2499999999955,5.));
#1855=CARTESIAN_POINT('',(103.062500000009,-49.5624999999976,5.));
#1856=CARTESIAN_POINT('',(171.250000000013,-90.2499999999935,5.));
#1857=CARTESIAN_POINT('',(136.250000000013,-90.2499999999961,5.));
#1858=CARTESIAN_POINT('',(178.750000000012,-82.749999999993,5.));
#1859=CARTESIAN_POINT('',(172.562500000014,-88.9374999999925,5.));
#1860=CARTESIAN_POINT('',(178.750000000013,-90.249999999993,5.));
#1861=CARTESIAN_POINT('',(-12.0000001788386,-47.5000007078121,5.));
#1862=CARTESIAN_POINT('',(-9.68245854828606,-47.5000007078108,5.));
#1863=CARTESIAN_POINT('',(34.533770725874,-47.5000007077852,5.));
#1864=CARTESIAN_POINT('',(9.68245854826143,-47.5000007078052,5.));
#1865=CARTESIAN_POINT('Origin',(-1.15905308287589E-11,-50.,5.));
#1866=CARTESIAN_POINT('',(12.0000001788139,-47.5000007078052,5.));
#1867=CARTESIAN_POINT('',(45.3750000894102,-47.5000007078052,5.));
#1868=CARTESIAN_POINT('',(12.0000001788139,-52.5000007450581,5.));
#1869=CARTESIAN_POINT('',(12.0000001788139,-26.2500003725273,5.));
#1870=CARTESIAN_POINT('',(9.68245817313375,-52.5000007450581,5.));
#1871=CARTESIAN_POINT('',(44.2162290865701,-52.5000007450581,5.));
#1872=CARTESIAN_POINT('',(-9.68245817315549,-52.5000007450637,5.));
#1873=CARTESIAN_POINT('Origin',(-1.15905308287589E-11,-50.,5.));
#1874=CARTESIAN_POINT('',(-12.0000001788357,-52.500000745065,5.));
#1875=CARTESIAN_POINT('',(33.3749999106006,-52.5000007450387,5.));
#1876=CARTESIAN_POINT('',(-12.0000001788523,-23.7500003539306,5.));
#1877=CARTESIAN_POINT('',(12.0000001788139,52.5000007450576,5.));
#1878=CARTESIAN_POINT('',(12.0000001788139,47.5000007078047,5.));
#1879=CARTESIAN_POINT('',(12.0000001788139,23.7500003539041,5.));
#1880=CARTESIAN_POINT('',(9.68245854826143,47.5000007078047,5.));
#1881=CARTESIAN_POINT('',(44.216229274134,47.5000007078047,5.));
#1882=CARTESIAN_POINT('',(-9.68245854828606,47.5000007078103,5.));
#1883=CARTESIAN_POINT('Origin',(-1.15907283770866E-11,49.9999999999996,
5.));
#1884=CARTESIAN_POINT('',(-12.0000001788386,47.5000007078117,5.));
#1885=CARTESIAN_POINT('',(33.3749999105977,47.5000007077854,5.));
#1886=CARTESIAN_POINT('',(-12.0000001788357,52.5000007450646,5.));
#1887=CARTESIAN_POINT('',(-12.0000001788509,26.2500003725603,5.));
#1888=CARTESIAN_POINT('',(-9.68245817315549,52.5000007450632,5.));
#1889=CARTESIAN_POINT('',(34.5337709134407,52.5000007450377,5.));
#1890=CARTESIAN_POINT('',(9.68245817313376,52.5000007450576,5.));
#1891=CARTESIAN_POINT('Origin',(-1.15907283770866E-11,49.9999999999996,
5.));
#1892=CARTESIAN_POINT('',(45.3750000894102,52.5000007450576,5.));
#1893=CARTESIAN_POINT('',(145.499999821186,47.5000007078047,5.));
#1894=CARTESIAN_POINT('',(145.499999821186,52.5000007450576,5.));
#1895=CARTESIAN_POINT('',(145.499999821186,26.2500003725305,5.));
#1896=CARTESIAN_POINT('',(147.817541826866,52.5000007450576,5.));
#1897=CARTESIAN_POINT('',(113.283770913436,52.5000007450576,5.));
#1898=CARTESIAN_POINT('',(167.182458173155,52.5000007450632,5.));
#1899=CARTESIAN_POINT('Origin',(157.500000000012,49.9999999999996,5.));
#1900=CARTESIAN_POINT('',(169.500000178836,52.5000007450646,5.));
#1901=CARTESIAN_POINT('',(124.125000089406,52.5000007450383,5.));
#1902=CARTESIAN_POINT('',(169.500000178839,47.5000007078117,5.));
#1903=CARTESIAN_POINT('',(169.500000178852,23.750000353934,5.));
#1904=CARTESIAN_POINT('',(167.182458548286,47.5000007078104,5.));
#1905=CARTESIAN_POINT('',(122.966229274133,47.5000007077848,5.));
#1906=CARTESIAN_POINT('',(147.817541451739,47.5000007078047,5.));
#1907=CARTESIAN_POINT('Origin',(157.500000000012,49.9999999999996,5.));
#1908=CARTESIAN_POINT('',(112.124999910596,47.5000007078045,5.));
#1909=CARTESIAN_POINT('',(145.499999821186,-47.5000007078052,5.));
#1910=CARTESIAN_POINT('',(147.817541451739,-47.5000007078052,5.));
#1911=CARTESIAN_POINT('',(113.283770725873,-47.5000007078052,5.));
#1912=CARTESIAN_POINT('',(167.182458548286,-47.5000007078108,5.));
#1913=CARTESIAN_POINT('Origin',(157.500000000012,-50.,5.));
#1914=CARTESIAN_POINT('',(169.500000178839,-47.5000007078121,5.));
#1915=CARTESIAN_POINT('',(124.125000089409,-47.5000007077858,5.));
#1916=CARTESIAN_POINT('',(169.500000178836,-52.500000745065,5.));
#1917=CARTESIAN_POINT('',(169.500000178851,-26.2500003725579,5.));
#1918=CARTESIAN_POINT('',(167.182458173155,-52.5000007450637,5.));
#1919=CARTESIAN_POINT('',(122.966229086566,-52.5000007450381,5.));
#1920=CARTESIAN_POINT('',(147.817541826866,-52.5000007450581,5.));
#1921=CARTESIAN_POINT('Origin',(157.500000000012,-50.,5.));
#1922=CARTESIAN_POINT('',(145.499999821186,-52.5000007450581,5.));
#1923=CARTESIAN_POINT('',(112.124999910596,-52.5000007450581,5.));
#1924=CARTESIAN_POINT('',(145.499999821186,-23.7500003539009,5.));
#1925=CARTESIAN_POINT('Origin',(178.75,90.250000000007,0.));
#1926=CARTESIAN_POINT('',(143.75,90.2500000000045,0.));
#1927=CARTESIAN_POINT('',(178.75,90.250000000007,0.));
#1928=CARTESIAN_POINT('',(143.75,90.2500000000045,0.));
#1929=CARTESIAN_POINT('Origin',(140.,86.5000000000042,0.));
#1930=CARTESIAN_POINT('',(136.25,82.750000000004,0.));
#1931=CARTESIAN_POINT('',(103.062500000004,49.5625000000025,0.));
#1932=CARTESIAN_POINT('',(136.25,82.750000000004,0.));
#1933=CARTESIAN_POINT('Origin',(175.000000000013,-86.4999999999932,0.));
#1934=CARTESIAN_POINT('',(171.250000000013,-90.2499999999935,0.));
#1935=CARTESIAN_POINT('',(171.250000000013,-90.2499999999935,0.));
#1936=CARTESIAN_POINT('',(178.750000000012,-82.749999999993,0.));
#1937=CARTESIAN_POINT('',(172.562500000014,-88.9374999999925,0.));
#1938=CARTESIAN_POINT('',(178.750000000012,-82.749999999993,0.));
#1939=CARTESIAN_POINT('Origin',(136.250000000013,-90.2499999999961,0.));
#1940=CARTESIAN_POINT('',(143.750000000013,-90.2499999999955,0.));
#1941=CARTESIAN_POINT('',(143.750000000013,-90.2499999999955,0.));
#1942=CARTESIAN_POINT('',(136.250000000013,-90.2499999999961,0.));
#1943=CARTESIAN_POINT('Origin',(140.000000000013,-86.4999999999958,0.));
#1944=CARTESIAN_POINT('',(103.062500000009,-49.5624999999976,0.));
#1945=CARTESIAN_POINT('Origin',(17.4999999999999,86.4999999999998,0.));
#1946=CARTESIAN_POINT('',(13.7499999999999,90.2499999999998,0.));
#1947=CARTESIAN_POINT('',(54.4375000000007,49.562499999999,0.));
#1948=CARTESIAN_POINT('',(13.7499999999999,90.2499999999998,0.));
#1949=CARTESIAN_POINT('Origin',(21.2499999999999,90.2499999999998,0.));
#1950=CARTESIAN_POINT('',(-13.75,90.2499999999998,0.));
#1951=CARTESIAN_POINT('',(-21.25,90.2499999999998,0.));
#1952=CARTESIAN_POINT('',(-13.75,90.2499999999998,0.));
#1953=CARTESIAN_POINT('Origin',(-17.5,86.4999999999998,0.));
#1954=CARTESIAN_POINT('',(-21.25,82.7499999999998,0.));
#1955=CARTESIAN_POINT('',(-15.0624999999975,88.9375000000023,0.));
#1956=CARTESIAN_POINT('',(-21.25,82.7499999999998,0.));
#1957=CARTESIAN_POINT('Origin',(17.5,-86.5000000000002,0.));
#1958=CARTESIAN_POINT('',(13.75,-90.2500000000002,0.));
#1959=CARTESIAN_POINT('',(13.75,-90.2500000000002,0.));
#1960=CARTESIAN_POINT('',(21.25,-82.7500000000002,0.));
#1961=CARTESIAN_POINT('',(54.4375000000025,-49.5624999999977,0.));
#1962=CARTESIAN_POINT('',(21.25,-82.7500000000002,0.));
#1963=CARTESIAN_POINT('Origin',(-21.25,-90.2500000000002,0.));
#1964=CARTESIAN_POINT('',(-13.75,-90.2500000000002,0.));
#1965=CARTESIAN_POINT('',(-13.75,-90.2500000000002,0.));
#1966=CARTESIAN_POINT('',(21.25,-90.2500000000002,0.));
#1967=CARTESIAN_POINT('Origin',(-17.5,-86.5000000000002,0.));
#1968=CARTESIAN_POINT('',(-21.25,-82.7500000000002,0.));
#1969=CARTESIAN_POINT('',(-21.25,-82.7500000000002,0.));
#1970=CARTESIAN_POINT('',(-15.0624999999993,-88.937500000001,0.));
#1971=CARTESIAN_POINT('Origin',(-21.25,90.2499999999998,0.));
#1972=CARTESIAN_POINT('',(-21.25,-90.2500000000002,0.));
#1973=CARTESIAN_POINT('Origin',(78.7500000000065,3.39284156325448E-12,15.));
#1974=CARTESIAN_POINT('',(7.49999999998841,-50.,15.));
#1975=CARTESIAN_POINT('Origin',(-1.15905308287589E-11,-50.,15.));
#1976=CARTESIAN_POINT('Origin',(78.7500000000065,3.39284156325448E-12,15.));
#1977=CARTESIAN_POINT('',(165.000000000012,49.9999999999996,15.));
#1978=CARTESIAN_POINT('Origin',(157.500000000012,49.9999999999996,15.));
#1979=CARTESIAN_POINT('Origin',(78.7500000000065,3.39284156325448E-12,15.));
#1980=CARTESIAN_POINT('',(165.000000000012,-50.,15.));
#1981=CARTESIAN_POINT('Origin',(157.500000000012,-50.,15.));
#1982=CARTESIAN_POINT('Origin',(78.7500000000065,3.39284156325448E-12,15.));
#1983=CARTESIAN_POINT('',(7.49999999998841,49.9999999999996,15.));
#1984=CARTESIAN_POINT('Origin',(-1.15907283770866E-11,49.9999999999996,
15.));
#1985=CARTESIAN_POINT('Origin',(157.500000000012,-50.,5.));
#1986=CARTESIAN_POINT('',(165.000000000012,-50.,80.));
#1987=CARTESIAN_POINT('Origin',(157.500000000012,-50.,80.));
#1988=CARTESIAN_POINT('',(165.000000000012,-50.,5.));
#1989=CARTESIAN_POINT('Origin',(147.817541451739,-47.5000007078052,5.));
#1990=CARTESIAN_POINT('',(145.499999821186,-47.5000007078052,80.));
#1991=CARTESIAN_POINT('',(145.499999821186,-47.5000007078052,5.));
#1992=CARTESIAN_POINT('',(147.817541451739,-47.5000007078052,80.));
#1993=CARTESIAN_POINT('',(145.499999821186,-47.5000007078052,80.));
#1994=CARTESIAN_POINT('',(147.817541451739,-47.5000007078052,5.));
#1995=CARTESIAN_POINT('Origin',(157.500000000012,-50.,5.));
#1996=CARTESIAN_POINT('',(167.182458548286,-47.5000007078108,80.));
#1997=CARTESIAN_POINT('Origin',(157.500000000012,-50.,80.));
#1998=CARTESIAN_POINT('',(167.182458548286,-47.5000007078108,5.));
#1999=CARTESIAN_POINT('Origin',(169.500000178839,-47.5000007078121,5.));
#2000=CARTESIAN_POINT('',(169.500000178839,-47.5000007078121,80.));
#2001=CARTESIAN_POINT('',(169.500000178839,-47.5000007078121,80.));
#2002=CARTESIAN_POINT('',(169.500000178839,-47.5000007078121,5.));
#2003=CARTESIAN_POINT('Origin',(169.500000178836,-52.500000745065,5.));
#2004=CARTESIAN_POINT('',(169.500000178836,-52.500000745065,80.));
#2005=CARTESIAN_POINT('',(169.500000178837,-50.000000745065,80.));
#2006=CARTESIAN_POINT('',(169.500000178836,-52.500000745065,5.));
#2007=CARTESIAN_POINT('Origin',(167.182458173155,-52.5000007450637,5.));
#2008=CARTESIAN_POINT('',(167.182458173155,-52.5000007450637,80.));
#2009=CARTESIAN_POINT('',(169.500000178836,-52.500000745065,80.));
#2010=CARTESIAN_POINT('',(167.182458173155,-52.5000007450637,5.));
#2011=CARTESIAN_POINT('Origin',(157.500000000012,-50.,5.));
#2012=CARTESIAN_POINT('',(147.817541826866,-52.5000007450581,80.));
#2013=CARTESIAN_POINT('Origin',(157.500000000012,-50.,80.));
#2014=CARTESIAN_POINT('',(147.817541826866,-52.5000007450581,5.));
#2015=CARTESIAN_POINT('Origin',(145.499999821186,-52.5000007450581,5.));
#2016=CARTESIAN_POINT('',(145.499999821186,-52.5000007450581,80.));
#2017=CARTESIAN_POINT('',(145.499999821186,-52.5000007450581,80.));
#2018=CARTESIAN_POINT('',(145.499999821186,-52.5000007450581,5.));
#2019=CARTESIAN_POINT('Origin',(145.499999821186,-47.5000007078052,5.));
#2020=CARTESIAN_POINT('',(145.499999821186,-50.0000007450581,80.));
#2021=CARTESIAN_POINT('Origin',(157.500000000012,-50.,80.));
#2022=CARTESIAN_POINT('Origin',(-1.15905308287589E-11,-50.,5.));
#2023=CARTESIAN_POINT('',(7.49999999998841,-50.,80.));
#2024=CARTESIAN_POINT('Origin',(-1.15905308287589E-11,-50.,80.));
#2025=CARTESIAN_POINT('',(7.49999999998841,-50.,5.));
#2026=CARTESIAN_POINT('Origin',(-9.68245854828606,-47.5000007078108,5.));
#2027=CARTESIAN_POINT('',(-12.0000001788386,-47.5000007078121,80.));
#2028=CARTESIAN_POINT('',(-12.0000001788386,-47.5000007078121,5.));
#2029=CARTESIAN_POINT('',(-9.68245854828606,-47.5000007078108,80.));
#2030=CARTESIAN_POINT('',(-12.0000001788386,-47.5000007078121,80.));
#2031=CARTESIAN_POINT('',(-9.68245854828606,-47.5000007078108,5.));
#2032=CARTESIAN_POINT('Origin',(-1.15905308287589E-11,-50.,5.));
#2033=CARTESIAN_POINT('',(9.68245854826143,-47.5000007078052,80.));
#2034=CARTESIAN_POINT('Origin',(-1.15905308287589E-11,-50.,80.));
#2035=CARTESIAN_POINT('',(9.68245854826143,-47.5000007078052,5.));
#2036=CARTESIAN_POINT('Origin',(12.0000001788139,-47.5000007078052,5.));
#2037=CARTESIAN_POINT('',(12.0000001788139,-47.5000007078052,80.));
#2038=CARTESIAN_POINT('',(12.0000001788139,-47.5000007078052,80.));
#2039=CARTESIAN_POINT('',(12.0000001788139,-47.5000007078052,5.));
#2040=CARTESIAN_POINT('Origin',(12.0000001788139,-52.5000007450581,5.));
#2041=CARTESIAN_POINT('',(12.0000001788139,-52.5000007450581,80.));
#2042=CARTESIAN_POINT('',(12.0000001788139,-50.0000007450581,80.));
#2043=CARTESIAN_POINT('',(12.0000001788139,-52.5000007450581,5.));
#2044=CARTESIAN_POINT('Origin',(9.68245817313375,-52.5000007450581,5.));
#2045=CARTESIAN_POINT('',(9.68245817313375,-52.5000007450581,80.));
#2046=CARTESIAN_POINT('',(12.0000001788139,-52.5000007450581,80.));
#2047=CARTESIAN_POINT('',(9.68245817313375,-52.5000007450581,5.));
#2048=CARTESIAN_POINT('Origin',(-1.15905308287589E-11,-50.,5.));
#2049=CARTESIAN_POINT('',(-9.68245817315549,-52.5000007450637,80.));
#2050=CARTESIAN_POINT('Origin',(-1.15905308287589E-11,-50.,80.));
#2051=CARTESIAN_POINT('',(-9.68245817315549,-52.5000007450637,5.));
#2052=CARTESIAN_POINT('Origin',(-12.0000001788357,-52.500000745065,5.));
#2053=CARTESIAN_POINT('',(-12.0000001788357,-52.500000745065,80.));
#2054=CARTESIAN_POINT('',(-12.0000001788357,-52.500000745065,80.));
#2055=CARTESIAN_POINT('',(-12.0000001788357,-52.500000745065,5.));
#2056=CARTESIAN_POINT('Origin',(-12.0000001788386,-47.5000007078121,5.));
#2057=CARTESIAN_POINT('',(-12.0000001788371,-50.000000745065,80.));
#2058=CARTESIAN_POINT('Origin',(-1.23145937891422E-11,-50.,80.));
#2059=CARTESIAN_POINT('Origin',(157.500000000012,49.9999999999996,5.));
#2060=CARTESIAN_POINT('',(165.000000000012,49.9999999999996,80.));
#2061=CARTESIAN_POINT('Origin',(157.500000000012,49.9999999999996,80.));
#2062=CARTESIAN_POINT('',(165.000000000012,49.9999999999996,5.));
#2063=CARTESIAN_POINT('Origin',(145.499999821186,52.5000007450576,5.));
#2064=CARTESIAN_POINT('',(145.499999821186,47.5000007078047,80.));
#2065=CARTESIAN_POINT('',(145.499999821186,47.5000007078047,5.));
#2066=CARTESIAN_POINT('',(145.499999821186,52.5000007450576,80.));
#2067=CARTESIAN_POINT('',(145.499999821186,50.0000007450576,80.));
#2068=CARTESIAN_POINT('',(145.499999821186,52.5000007450576,5.));
#2069=CARTESIAN_POINT('Origin',(147.817541826866,52.5000007450576,5.));
#2070=CARTESIAN_POINT('',(147.817541826866,52.5000007450576,80.));
#2071=CARTESIAN_POINT('',(145.499999821186,52.5000007450576,80.));
#2072=CARTESIAN_POINT('',(147.817541826866,52.5000007450576,5.));
#2073=CARTESIAN_POINT('Origin',(157.500000000012,49.9999999999996,5.));
#2074=CARTESIAN_POINT('',(167.182458173155,52.5000007450632,80.));
#2075=CARTESIAN_POINT('Origin',(157.500000000012,49.9999999999996,80.));
#2076=CARTESIAN_POINT('',(167.182458173155,52.5000007450632,5.));
#2077=CARTESIAN_POINT('Origin',(169.500000178836,52.5000007450646,5.));
#2078=CARTESIAN_POINT('',(169.500000178836,52.5000007450646,80.));
#2079=CARTESIAN_POINT('',(169.500000178836,52.5000007450646,80.));
#2080=CARTESIAN_POINT('',(169.500000178836,52.5000007450646,5.));
#2081=CARTESIAN_POINT('Origin',(169.500000178839,47.5000007078117,5.));
#2082=CARTESIAN_POINT('',(169.500000178839,47.5000007078117,80.));
#2083=CARTESIAN_POINT('',(169.500000178839,47.5000007078117,80.));
#2084=CARTESIAN_POINT('',(169.500000178839,47.5000007078117,5.));
#2085=CARTESIAN_POINT('Origin',(167.182458548286,47.5000007078103,5.));
#2086=CARTESIAN_POINT('',(167.182458548286,47.5000007078104,80.));
#2087=CARTESIAN_POINT('',(169.500000178839,47.5000007078117,80.));
#2088=CARTESIAN_POINT('',(167.182458548286,47.5000007078104,5.));
#2089=CARTESIAN_POINT('Origin',(157.500000000012,49.9999999999996,5.));
#2090=CARTESIAN_POINT('',(147.817541451739,47.5000007078047,80.));
#2091=CARTESIAN_POINT('Origin',(157.500000000012,49.9999999999996,80.));
#2092=CARTESIAN_POINT('',(147.817541451739,47.5000007078047,5.));
#2093=CARTESIAN_POINT('Origin',(145.499999821186,47.5000007078047,5.));
#2094=CARTESIAN_POINT('',(145.499999821186,47.5000007078047,80.));
#2095=CARTESIAN_POINT('Origin',(157.500000000012,49.9999999999996,80.));
#2096=CARTESIAN_POINT('Origin',(-1.15907283770866E-11,49.9999999999996,
5.));
#2097=CARTESIAN_POINT('',(7.49999999998841,49.9999999999996,80.));
#2098=CARTESIAN_POINT('Origin',(-1.15907283770866E-11,49.9999999999996,
80.));
#2099=CARTESIAN_POINT('',(7.49999999998841,49.9999999999996,5.));
#2100=CARTESIAN_POINT('Origin',(12.0000001788139,47.5000007078047,5.));
#2101=CARTESIAN_POINT('',(12.0000001788139,52.5000007450576,80.));
#2102=CARTESIAN_POINT('',(12.0000001788139,52.5000007450576,5.));
#2103=CARTESIAN_POINT('',(12.0000001788139,47.5000007078047,80.));
#2104=CARTESIAN_POINT('',(12.0000001788139,50.0000007450576,80.));
#2105=CARTESIAN_POINT('',(12.0000001788139,47.5000007078047,5.));
#2106=CARTESIAN_POINT('Origin',(9.68245854826143,47.5000007078047,5.));
#2107=CARTESIAN_POINT('',(9.68245854826143,47.5000007078047,80.));
#2108=CARTESIAN_POINT('',(12.0000001788139,47.5000007078047,80.));
#2109=CARTESIAN_POINT('',(9.68245854826143,47.5000007078047,5.));
#2110=CARTESIAN_POINT('Origin',(-1.15907283770866E-11,49.9999999999996,
5.));
#2111=CARTESIAN_POINT('',(-9.68245854828606,47.5000007078103,80.));
#2112=CARTESIAN_POINT('Origin',(-1.15907283770866E-11,49.9999999999996,
80.));
#2113=CARTESIAN_POINT('',(-9.68245854828606,47.5000007078103,5.));
#2114=CARTESIAN_POINT('Origin',(-12.0000001788386,47.5000007078117,5.));
#2115=CARTESIAN_POINT('',(-12.0000001788386,47.5000007078117,80.));
#2116=CARTESIAN_POINT('',(-12.0000001788386,47.5000007078117,80.));
#2117=CARTESIAN_POINT('',(-12.0000001788386,47.5000007078117,5.));
#2118=CARTESIAN_POINT('Origin',(-12.0000001788357,52.5000007450646,5.));
#2119=CARTESIAN_POINT('',(-12.0000001788357,52.5000007450646,80.));
#2120=CARTESIAN_POINT('',(-12.0000001788371,50.0000007450646,80.));
#2121=CARTESIAN_POINT('',(-12.0000001788357,52.5000007450646,5.));
#2122=CARTESIAN_POINT('Origin',(-9.68245817315549,52.5000007450632,5.));
#2123=CARTESIAN_POINT('',(-9.68245817315549,52.5000007450632,80.));
#2124=CARTESIAN_POINT('',(-12.0000001788357,52.5000007450646,80.));
#2125=CARTESIAN_POINT('',(-9.68245817315549,52.5000007450632,5.));
#2126=CARTESIAN_POINT('Origin',(-1.15907283770866E-11,49.9999999999996,
5.));
#2127=CARTESIAN_POINT('',(9.68245817313376,52.5000007450576,80.));
#2128=CARTESIAN_POINT('Origin',(-1.15907283770866E-11,49.9999999999996,
80.));
#2129=CARTESIAN_POINT('',(9.68245817313376,52.5000007450576,5.));
#2130=CARTESIAN_POINT('Origin',(12.0000001788139,52.5000007450576,5.));
#2131=CARTESIAN_POINT('',(12.0000001788139,52.5000007450576,80.));
#2132=CARTESIAN_POINT('Origin',(-1.23145937891422E-11,49.9999999999996,
80.));
#2133=CARTESIAN_POINT('Origin',(21.25,-90.2500000000002,0.));
#2134=CARTESIAN_POINT('',(21.2499999999999,90.2499999999998,0.));
#2135=CARTESIAN_POINT('Origin',(136.25,90.250000000004,0.));
#2136=CARTESIAN_POINT('',(136.25,90.250000000004,0.));
#2137=CARTESIAN_POINT('Origin',(178.750000000013,-90.249999999993,0.));
#2138=CARTESIAN_POINT('',(178.750000000013,-90.249999999993,0.));
#2139=CARTESIAN_POINT('Origin',(78.7500000000065,3.39284156325448E-12,0.));
#2140=UNCERTAINTY_MEASURE_WITH_UNIT(LENGTH_MEASURE(0.01),#2144,
'DISTANCE_ACCURACY_VALUE',
'Maximum model space distance between geometric entities at asserted c
onnectivities');
#2141=UNCERTAINTY_MEASURE_WITH_UNIT(LENGTH_MEASURE(0.01),#2144,
'DISTANCE_ACCURACY_VALUE',
'Maximum model space distance between geometric entities at asserted c
onnectivities');
#2142=(
GEOMETRIC_REPRESENTATION_CONTEXT(3)
GLOBAL_UNCERTAINTY_ASSIGNED_CONTEXT((#2140))
GLOBAL_UNIT_ASSIGNED_CONTEXT((#2144,#2146,#2147))
REPRESENTATION_CONTEXT('','3D')
);
#2143=(
GEOMETRIC_REPRESENTATION_CONTEXT(3)
GLOBAL_UNCERTAINTY_ASSIGNED_CONTEXT((#2141))
GLOBAL_UNIT_ASSIGNED_CONTEXT((#2144,#2146,#2147))
REPRESENTATION_CONTEXT('','3D')
);
#2144=(
LENGTH_UNIT()
NAMED_UNIT(*)
SI_UNIT(.MILLI.,.METRE.)
);
#2145=(
LENGTH_UNIT()
NAMED_UNIT(*)
SI_UNIT($,.METRE.)
);
#2146=(
NAMED_UNIT(*)
PLANE_ANGLE_UNIT()
SI_UNIT($,.RADIAN.)
);
#2147=(
NAMED_UNIT(*)
SI_UNIT($,.STERADIAN.)
SOLID_ANGLE_UNIT()
);
#2148=SHAPE_DEFINITION_REPRESENTATION(#2149,#2150);
#2149=PRODUCT_DEFINITION_SHAPE('',$,#2152);
#2150=SHAPE_REPRESENTATION('',(#1312),#2142);
#2151=PRODUCT_DEFINITION_CONTEXT('part definition',#2156,'design');
#2152=PRODUCT_DEFINITION('Top Cover','Top Cover v24',#2153,#2151);
#2153=PRODUCT_DEFINITION_FORMATION('',$,#2158);
#2154=PRODUCT_RELATED_PRODUCT_CATEGORY('Top Cover v24','Top Cover v24',
(#2158));
#2155=APPLICATION_PROTOCOL_DEFINITION('international standard',
'automotive_design',2009,#2156);
#2156=APPLICATION_CONTEXT(
'Core Data for Automotive Mechanical Design Process');
#2157=PRODUCT_CONTEXT('part definition',#2156,'mechanical');
#2158=PRODUCT('Top Cover','Top Cover v24',$,(#2157));
#2159=PRESENTATION_STYLE_ASSIGNMENT((#2161));
#2160=PRESENTATION_STYLE_ASSIGNMENT((#2162));
#2161=SURFACE_STYLE_USAGE(.BOTH.,#2163);
#2162=SURFACE_STYLE_USAGE(.BOTH.,#2164);
#2163=SURFACE_SIDE_STYLE('',(#2165));
#2164=SURFACE_SIDE_STYLE('',(#2166));
#2165=SURFACE_STYLE_FILL_AREA(#2167);
#2166=SURFACE_STYLE_FILL_AREA(#2168);
#2167=FILL_AREA_STYLE('Steel - Satin',(#2169));
#2168=FILL_AREA_STYLE('Paint - Enamel Glossy (Black)',(#2170));
#2169=FILL_AREA_STYLE_COLOUR('Steel - Satin',#2171);
#2170=FILL_AREA_STYLE_COLOUR('Paint - Enamel Glossy (Black)',#2172);
#2171=COLOUR_RGB('Steel - Satin',0.627450980392157,0.627450980392157,0.627450980392157);
#2172=COLOUR_RGB('Paint - Enamel Glossy (Black)',0.0980392156862745,0.0980392156862745,
0.0980392156862745);
ENDSEC;
END-ISO-10303-21;
